#N canvas 0 22 909 446 10;
#X obj 380 295 cor_pendant_thrower, f 27;
#X obj 125 132 tgl 15 0 empty empty empty 17 7 0 10 -262144 -1 -1 0
1;
#X obj 113 84 sel 0;
#X msg 113 106 1;
#X msg 141 106 0;
#X obj 99 156 nozip;
#X obj 185 132 tgl 15 0 empty empty empty 17 7 0 10 -262144 -1 -1 0
1;
#X msg 173 106 1;
#X msg 201 106 0;
#X obj 159 156 nozip;
#X obj 242 134 tgl 15 0 empty empty empty 17 7 0 10 -262144 -1 -1 0
1;
#X msg 230 108 1;
#X msg 258 108 0;
#X obj 216 158 nozip;
#X obj 302 134 tgl 15 0 empty empty empty 17 7 0 10 -262144 -1 -1 0
1;
#X msg 290 108 1;
#X msg 318 108 0;
#X obj 276 158 nozip;
#X obj 360 133 tgl 15 0 empty empty empty 17 7 0 10 -262144 -1 -1 1
1;
#X msg 348 107 1;
#X msg 376 107 0;
#X obj 334 157 nozip;
#X obj 420 133 tgl 15 0 empty empty empty 17 7 0 10 -262144 -1 -1 0
1;
#X msg 408 107 1;
#X msg 436 107 0;
#X obj 394 157 nozip;
#X obj 477 135 tgl 15 0 empty empty empty 17 7 0 10 -262144 -1 -1 0
1;
#X msg 465 109 1;
#X msg 493 109 0;
#X obj 451 159 nozip;
#X obj 537 135 tgl 15 0 empty empty empty 17 7 0 10 -262144 -1 -1 0
1;
#X msg 525 109 1;
#X msg 553 109 0;
#X obj 511 159 nozip;
#X obj 597 135 tgl 15 0 empty empty empty 17 7 0 10 -262144 -1 -1 0
1;
#X msg 585 109 1;
#X msg 613 109 0;
#X obj 571 159 nozip;
#X obj 657 135 tgl 15 0 empty empty empty 17 7 0 10 -262144 -1 -1 0
1;
#X msg 645 109 1;
#X msg 673 109 0;
#X obj 631 159 nozip;
#X obj 714 137 tgl 15 0 empty empty empty 17 7 0 10 -262144 -1 -1 0
1;
#X msg 702 111 1;
#X msg 730 111 0;
#X obj 688 161 nozip;
#X obj 775 136 tgl 15 0 empty empty empty 17 7 0 10 -262144 -1 -1 0
1;
#X msg 763 110 1;
#X msg 791 110 0;
#X obj 748 161 nozip;
#X obj 173 84 sel 1;
#X obj 230 86 sel 2;
#X obj 290 86 sel 3;
#X obj 348 85 sel 4;
#X obj 408 85 sel 5;
#X obj 465 87 sel 6;
#X obj 525 87 sel 7;
#X obj 585 87 sel 8;
#X obj 645 87 sel 9;
#X obj 702 89 sel 10;
#X obj 763 88 sel 11;
#X obj 82 0 inlet~;
#X text 135 -1 audio in;
#X obj 330 7 inlet;
#X text 375 10 incoming number 0-11 exclusively turns on audio channel
;
#X connect 1 0 5 1;
#X connect 2 0 3 0;
#X connect 2 1 4 0;
#X connect 3 0 1 0;
#X connect 4 0 1 0;
#X connect 5 0 0 0;
#X connect 6 0 9 1;
#X connect 7 0 6 0;
#X connect 8 0 6 0;
#X connect 9 0 0 1;
#X connect 10 0 13 1;
#X connect 11 0 10 0;
#X connect 12 0 10 0;
#X connect 13 0 0 2;
#X connect 14 0 17 1;
#X connect 15 0 14 0;
#X connect 16 0 14 0;
#X connect 17 0 0 3;
#X connect 18 0 21 1;
#X connect 19 0 18 0;
#X connect 20 0 18 0;
#X connect 21 0 0 4;
#X connect 22 0 25 1;
#X connect 23 0 22 0;
#X connect 24 0 22 0;
#X connect 25 0 0 5;
#X connect 26 0 29 1;
#X connect 27 0 26 0;
#X connect 28 0 26 0;
#X connect 29 0 0 6;
#X connect 30 0 33 1;
#X connect 31 0 30 0;
#X connect 32 0 30 0;
#X connect 33 0 0 7;
#X connect 34 0 37 1;
#X connect 35 0 34 0;
#X connect 36 0 34 0;
#X connect 37 0 0 8;
#X connect 38 0 41 1;
#X connect 39 0 38 0;
#X connect 40 0 38 0;
#X connect 41 0 0 9;
#X connect 42 0 45 1;
#X connect 43 0 42 0;
#X connect 44 0 42 0;
#X connect 45 0 0 10;
#X connect 46 0 49 1;
#X connect 47 0 46 0;
#X connect 48 0 46 0;
#X connect 49 0 0 11;
#X connect 50 0 7 0;
#X connect 50 1 8 0;
#X connect 51 0 11 0;
#X connect 51 1 12 0;
#X connect 52 0 15 0;
#X connect 52 1 16 0;
#X connect 53 0 19 0;
#X connect 53 1 20 0;
#X connect 54 0 23 0;
#X connect 54 1 24 0;
#X connect 55 0 27 0;
#X connect 55 1 28 0;
#X connect 56 0 31 0;
#X connect 56 1 32 0;
#X connect 57 0 35 0;
#X connect 57 1 36 0;
#X connect 58 0 39 0;
#X connect 58 1 40 0;
#X connect 59 0 43 0;
#X connect 59 1 44 0;
#X connect 60 0 47 0;
#X connect 60 1 48 0;
#X connect 61 0 5 0;
#X connect 61 0 9 0;
#X connect 61 0 13 0;
#X connect 61 0 17 0;
#X connect 61 0 21 0;
#X connect 61 0 25 0;
#X connect 61 0 29 0;
#X connect 61 0 33 0;
#X connect 61 0 37 0;
#X connect 61 0 41 0;
#X connect 61 0 45 0;
#X connect 61 0 49 0;
#X connect 63 0 2 0;
#X connect 63 0 50 0;
#X connect 63 0 51 0;
#X connect 63 0 52 0;
#X connect 63 0 53 0;
#X connect 63 0 54 0;
#X connect 63 0 55 0;
#X connect 63 0 56 0;
#X connect 63 0 57 0;
#X connect 63 0 58 0;
#X connect 63 0 59 0;
#X connect 63 0 60 0;
