#N canvas 0 22 909 446 10;
#X obj 360 133 tgl 15 0 empty empty empty 17 7 0 10 -262144 -1 -1 0
1;
#X msg 348 107 1;
#X msg 376 107 0;
#X obj 334 157 nozip;
#X obj 420 133 tgl 15 0 empty empty empty 17 7 0 10 -262144 -1 -1 0
1;
#X msg 408 107 1;
#X msg 436 107 0;
#X obj 394 157 nozip;
#X obj 477 135 tgl 15 0 empty empty empty 17 7 0 10 -262144 -1 -1 1
1;
#X msg 465 109 1;
#X msg 493 109 0;
#X obj 451 159 nozip;
#X obj 537 135 tgl 15 0 empty empty empty 17 7 0 10 -262144 -1 -1 0
1;
#X msg 525 109 1;
#X msg 553 109 0;
#X obj 511 159 nozip;
#X obj 597 135 tgl 15 0 empty empty empty 17 7 0 10 -262144 -1 -1 0
1;
#X msg 585 109 1;
#X msg 613 109 0;
#X obj 571 159 nozip;
#X obj 82 0 inlet~;
#X text 135 -1 audio in;
#X obj 330 7 inlet;
#X obj 380 295 cor_pa_thrower, f 27;
#X obj 348 85 sel 0;
#X obj 408 85 sel 1;
#X obj 465 87 sel 2;
#X obj 525 87 sel 3;
#X obj 585 87 sel 4;
#X obj 658 135 tgl 15 0 empty empty empty 17 7 0 10 -262144 -1 -1 0
1;
#X msg 646 109 1;
#X msg 674 109 0;
#X obj 632 159 nozip;
#X obj 718 135 tgl 15 0 empty empty empty 17 7 0 10 -262144 -1 -1 0
1;
#X msg 706 109 1;
#X msg 734 109 0;
#X obj 692 159 nozip;
#X obj 778 135 tgl 15 0 empty empty empty 17 7 0 10 -262144 -1 -1 0
1;
#X msg 766 109 1;
#X msg 794 109 0;
#X obj 752 159 nozip;
#X obj 646 87 sel 5;
#X obj 706 87 sel 6;
#X obj 766 87 sel 7;
#X text 375 10 incoming number 0-7 exclusively turns on audio channel
;
#X connect 0 0 3 1;
#X connect 1 0 0 0;
#X connect 2 0 0 0;
#X connect 3 0 23 0;
#X connect 4 0 7 1;
#X connect 5 0 4 0;
#X connect 6 0 4 0;
#X connect 7 0 23 1;
#X connect 8 0 11 1;
#X connect 9 0 8 0;
#X connect 10 0 8 0;
#X connect 11 0 23 2;
#X connect 12 0 15 1;
#X connect 13 0 12 0;
#X connect 14 0 12 0;
#X connect 15 0 23 3;
#X connect 16 0 19 1;
#X connect 17 0 16 0;
#X connect 18 0 16 0;
#X connect 19 0 23 4;
#X connect 20 0 3 0;
#X connect 20 0 7 0;
#X connect 20 0 11 0;
#X connect 20 0 15 0;
#X connect 20 0 19 0;
#X connect 20 0 32 0;
#X connect 20 0 36 0;
#X connect 20 0 40 0;
#X connect 22 0 24 0;
#X connect 22 0 25 0;
#X connect 22 0 26 0;
#X connect 22 0 27 0;
#X connect 22 0 28 0;
#X connect 24 0 1 0;
#X connect 24 1 2 0;
#X connect 25 0 5 0;
#X connect 25 1 6 0;
#X connect 26 0 9 0;
#X connect 26 1 10 0;
#X connect 27 0 13 0;
#X connect 27 1 14 0;
#X connect 28 0 17 0;
#X connect 28 1 18 0;
#X connect 29 0 32 1;
#X connect 30 0 29 0;
#X connect 31 0 29 0;
#X connect 32 0 23 5;
#X connect 33 0 36 1;
#X connect 34 0 33 0;
#X connect 35 0 33 0;
#X connect 36 0 23 6;
#X connect 37 0 40 1;
#X connect 38 0 37 0;
#X connect 39 0 37 0;
#X connect 40 0 23 7;
#X connect 41 0 30 0;
#X connect 41 1 31 0;
#X connect 42 0 34 0;
#X connect 42 1 35 0;
#X connect 43 0 38 0;
#X connect 43 1 39 0;
