#N canvas 472 219 965 657 10;
#X obj 232 393 auto_pan;
#X floatatom 207 426 5 0 0 0 - - -, f 5;
#X obj 155 396 loadbang;
#X text 233 322 pan time;
#X text 151 374 pan width;
#X msg 155 422 0;
#X obj 218 272 metro 3000;
#X obj 218 200 r \$0-start;
#X obj 125 71 r \$0-start;
#X obj 248 221 r \$0-stop;
#X msg 218 249 1;
#X msg 248 249 0;
#X obj 194 70 r \$0-stop;
#X msg 194 94 stop;
#X obj 112 525 panner~;
#X obj 112 563 throw~ devL;
#X obj 189 563 throw~ devR;
#X obj 125 94 t b b;
#X obj 218 150 timer;
#X text 271 158 file length;
#X obj 125 146 volume~;
#X msg 233 118 1;
#X obj 233 95 loadbang;
#X text 262 120 init vol;
#X obj 88 491 *~;
#X obj 52 446 tgl 15 0 empty empty empty 17 7 0 10 -262144 -1 -1 1
1;
#X obj 52 418 r \$0-headphones;
#X obj 125 120 elooper~;
#X msg 173 41 bar_beatslap_pendants;
#X obj 60 5 s \$0-start;
#X obj 60 -15 bng 15 250 50 0 empty empty empty 17 7 0 10 -262144 -1
-1;
#X obj 130 -15 bng 15 250 50 0 empty empty empty 17 7 0 10 -262144
-1 -1;
#X obj 130 5 s \$0-stop;
#X obj 438 -4 s \$0-headphones;
#X obj 440 -29 tgl 15 0 empty empty empty 17 7 0 10 -262144 -1 -1 1
1;
#X obj 62 -38 sel 0 1;
#X obj 125 450 linear_panner_8ch~, f 27;
#X obj 125 488 bar_pendant_thrower, f 27;
#X obj 615 382 auto_pan;
#X floatatom 590 415 5 0 0 0 - - -, f 5;
#X obj 538 385 loadbang;
#X text 616 311 pan time;
#X text 534 363 pan width;
#X msg 538 411 0;
#X obj 601 261 metro 3000;
#X obj 601 189 r \$0-start;
#X obj 508 60 r \$0-start;
#X obj 631 210 r \$0-stop;
#X msg 601 238 1;
#X msg 631 238 0;
#X obj 577 59 r \$0-stop;
#X msg 577 83 stop;
#X obj 495 514 panner~;
#X obj 495 552 throw~ devL;
#X obj 572 552 throw~ devR;
#X obj 508 83 t b b;
#X obj 601 139 timer;
#X text 660 164 file length;
#X obj 601 165 nbx 5 14 -1e+37 1e+37 0 0 empty empty empty 0 -8 0 10
-262144 -1 -1 88420.1 256;
#X obj 508 135 volume~;
#X msg 616 107 1;
#X obj 616 84 loadbang;
#X text 645 109 init vol;
#X obj 471 480 *~;
#X obj 435 435 tgl 15 0 empty empty empty 17 7 0 10 -262144 -1 -1 1
1;
#X obj 435 407 r \$0-headphones;
#X obj 508 109 elooper~;
#X obj 508 439 linear_panner_8ch~, f 27;
#X obj 508 477 bar_pendant_thrower, f 27;
#X msg 556 30 bar_stutter_pendants;
#X msg 605 346 0 15000 \, 1 15000 15000;
#X msg 222 357 1 15000 \, 0 15000 15000;
#X msg 218 175 set \$1;
#X msg 268 176 124114;
#X obj 998 385 auto_pan;
#X floatatom 973 418 5 0 0 0 - - -, f 5;
#X obj 921 388 loadbang;
#X text 999 314 pan time;
#X text 917 366 pan width;
#X msg 921 414 0;
#X obj 984 264 metro 3000;
#X obj 984 192 r \$0-start;
#X obj 891 63 r \$0-start;
#X obj 1014 213 r \$0-stop;
#X msg 984 241 1;
#X msg 1014 241 0;
#X obj 960 62 r \$0-stop;
#X msg 960 86 stop;
#X obj 878 517 panner~;
#X obj 878 555 throw~ devL;
#X obj 955 555 throw~ devR;
#X obj 891 86 t b b;
#X obj 984 142 timer;
#X text 1037 150 file length;
#X obj 891 138 volume~;
#X msg 999 110 1;
#X obj 999 87 loadbang;
#X text 1028 112 init vol;
#X obj 854 483 *~;
#X obj 818 438 tgl 15 0 empty empty empty 17 7 0 10 -262144 -1 -1 0
1;
#X obj 818 410 r \$0-headphones;
#X obj 891 112 elooper~;
#X obj 891 442 linear_panner_8ch~, f 27;
#X obj 891 480 bar_pendant_thrower, f 27;
#X msg 988 349 1 15000 \, 0 15000 15000;
#X msg 984 167 set \$1;
#X msg 1034 168 1;
#X msg 939 33 bar_blurb2_pendants;
#X connect 0 0 1 0;
#X connect 0 0 14 1;
#X connect 0 0 36 2;
#X connect 2 0 5 0;
#X connect 5 0 36 1;
#X connect 6 0 71 0;
#X connect 7 0 10 0;
#X connect 8 0 17 0;
#X connect 9 0 11 0;
#X connect 10 0 6 0;
#X connect 11 0 6 0;
#X connect 12 0 13 0;
#X connect 13 0 27 0;
#X connect 14 0 15 0;
#X connect 14 1 16 0;
#X connect 17 0 27 0;
#X connect 17 1 28 0;
#X connect 18 0 72 0;
#X connect 20 0 24 0;
#X connect 20 0 36 0;
#X connect 21 0 20 1;
#X connect 22 0 21 0;
#X connect 24 0 14 0;
#X connect 25 0 24 1;
#X connect 26 0 25 0;
#X connect 27 0 20 0;
#X connect 27 1 18 0;
#X connect 27 2 18 1;
#X connect 28 0 27 2;
#X connect 30 0 29 0;
#X connect 31 0 32 0;
#X connect 34 0 33 0;
#X connect 35 0 31 0;
#X connect 35 1 30 0;
#X connect 36 0 37 0;
#X connect 36 1 37 1;
#X connect 36 2 37 2;
#X connect 36 3 37 3;
#X connect 36 4 37 4;
#X connect 36 5 37 5;
#X connect 36 6 37 6;
#X connect 36 7 37 7;
#X connect 38 0 39 0;
#X connect 38 0 52 1;
#X connect 38 0 67 2;
#X connect 40 0 43 0;
#X connect 43 0 67 1;
#X connect 44 0 70 0;
#X connect 45 0 48 0;
#X connect 46 0 55 0;
#X connect 47 0 49 0;
#X connect 48 0 44 0;
#X connect 49 0 44 0;
#X connect 50 0 51 0;
#X connect 51 0 66 0;
#X connect 52 0 53 0;
#X connect 52 1 54 0;
#X connect 55 0 66 0;
#X connect 55 1 69 0;
#X connect 56 0 58 0;
#X connect 59 0 63 0;
#X connect 59 0 67 0;
#X connect 60 0 59 1;
#X connect 61 0 60 0;
#X connect 63 0 52 0;
#X connect 64 0 63 1;
#X connect 65 0 64 0;
#X connect 66 0 59 0;
#X connect 66 1 56 0;
#X connect 66 2 56 1;
#X connect 67 0 68 0;
#X connect 67 1 68 1;
#X connect 67 2 68 2;
#X connect 67 3 68 3;
#X connect 67 4 68 4;
#X connect 67 5 68 5;
#X connect 67 6 68 6;
#X connect 67 7 68 7;
#X connect 69 0 66 2;
#X connect 70 0 38 0;
#X connect 71 0 0 0;
#X connect 72 0 73 0;
#X connect 74 0 75 0;
#X connect 74 0 88 1;
#X connect 74 0 102 2;
#X connect 76 0 79 0;
#X connect 79 0 102 1;
#X connect 80 0 104 0;
#X connect 81 0 84 0;
#X connect 82 0 91 0;
#X connect 83 0 85 0;
#X connect 84 0 80 0;
#X connect 85 0 80 0;
#X connect 86 0 87 0;
#X connect 87 0 101 0;
#X connect 88 0 89 0;
#X connect 88 1 90 0;
#X connect 91 0 101 0;
#X connect 91 1 107 0;
#X connect 92 0 105 0;
#X connect 94 0 98 0;
#X connect 94 0 102 0;
#X connect 95 0 94 1;
#X connect 96 0 95 0;
#X connect 98 0 88 0;
#X connect 99 0 98 1;
#X connect 100 0 99 0;
#X connect 101 0 94 0;
#X connect 101 1 92 0;
#X connect 101 2 92 1;
#X connect 102 0 103 0;
#X connect 102 1 103 1;
#X connect 102 2 103 2;
#X connect 102 3 103 3;
#X connect 102 4 103 4;
#X connect 102 5 103 5;
#X connect 102 6 103 6;
#X connect 102 7 103 7;
#X connect 104 0 74 0;
#X connect 105 0 106 0;
#X connect 107 0 101 2;
