#N canvas 250 232 983 315 10;
#X obj 346 43 inlet~;
#X obj 307 118 throw~ c1;
#X obj 375 118 throw~ c2;
#X obj 443 118 throw~ c3;
#X obj 511 118 throw~ c4;
#X connect 0 0 1 0;
#X connect 0 0 2 0;
#X connect 0 0 3 0;
#X connect 0 0 4 0;
