#N canvas 161 103 1417 808 10;
#X obj 61 81 r \$0-start;
#X obj 130 80 r \$0-stop;
#X msg 130 104 stop;
#X obj 61 104 t b b;
#X obj 154 160 timer;
#X text 239 183 file length;
#X obj 180 184 nbx 5 14 -1e+37 1e+37 0 0 empty empty empty 0 -8 0 10
-262144 -1 -1 127884 256;
#X obj 62 172 volume~;
#X msg 169 128 1;
#X obj 169 105 loadbang;
#X text 198 130 init vol;
#X obj 65 444 tgl 15 0 empty empty empty 17 7 0 10 -262144 -1 -1 0
1;
#X obj 65 416 r \$0-headphones;
#X obj 61 130 elooper~;
#X obj 167 524 2_ch_selector;
#X floatatom 209 383 5 0 0 0 - - -, f 5;
#X obj 251 359 mod 2;
#X obj 167 495 *~;
#X obj 209 321 f;
#X obj 242 321 + 1;
#X msg 109 51 bar_pings_pendants;
#X obj 60 5 s \$0-start;
#X obj 60 -15 bng 15 250 50 0 empty empty empty 17 7 0 10 -262144 -1
-1;
#X obj 130 -15 bng 15 250 50 0 empty empty empty 17 7 0 10 -262144
-1 -1;
#X obj 130 5 s \$0-stop;
#X obj 438 -4 s \$0-headphones;
#X obj 440 -29 tgl 15 0 empty empty empty 17 7 0 10 -262144 -1 -1 0
1;
#X obj 62 -38 sel 0 1;
#X obj 204 411 8_ch_selector;
#X obj 342 296 vline~;
#X obj 373 389 snapshot~;
#X obj 375 334 bng 15 250 50 0 empty empty empty 17 7 0 10 -262144
-1 -1;
#X obj 373 415 change 0;
#X obj 405 323 loadbang;
#X obj 373 365 metro 50;
#X obj 371 441 select 1;
#X obj 209 359 mod 8;
#X msg 172 214 0 \, 1 0 9000 \, 0 0 9010 \, 1 0 23000 \, 0 0 23100
\, 1 0 35000 \, 0 0 35100 \, 1 0 45000 \, 0 0 45100 \, 1 0 55000 \,
0 0 55100 \, 1 0 69000 \, 0 0 69100 \, 1 0 83000 \, 0 0 83100 \, 1
0 95000 \, 0 0 95100 \, 1 0 105000 \, 0 0 105100 \, 1 0 115000 \, 0
0 115100 \, 1 0 125000 \, 0 0 125100;
#X obj 602 69 r \$0-start;
#X obj 671 68 r \$0-stop;
#X msg 671 92 stop;
#X obj 602 92 t b b;
#X obj 695 148 timer;
#X text 780 171 file length;
#X obj 721 172 nbx 5 14 -1e+37 1e+37 0 0 empty empty empty 0 -8 0 10
-262144 -1 -1 121337 256;
#X obj 603 160 volume~;
#X msg 710 116 1;
#X obj 710 93 loadbang;
#X text 739 118 init vol;
#X obj 606 432 tgl 15 0 empty empty empty 17 7 0 10 -262144 -1 -1 0
1;
#X obj 606 404 r \$0-headphones;
#X obj 602 118 elooper~;
#X obj 708 512 2_ch_selector;
#X floatatom 750 371 5 0 0 0 - - -, f 5;
#X obj 792 347 mod 2;
#X obj 708 483 *~;
#X obj 750 309 f;
#X obj 783 309 + 1;
#X obj 745 399 8_ch_selector;
#X obj 883 284 vline~;
#X obj 914 377 snapshot~;
#X obj 916 322 bng 15 250 50 0 empty empty empty 17 7 0 10 -262144
-1 -1;
#X obj 914 403 change 0;
#X obj 946 311 loadbang;
#X obj 914 353 metro 50;
#X obj 912 429 select 1;
#X obj 750 347 mod 8;
#X msg 650 39 bar_pongs_pendants;
#X msg 714 202 0 \, 1 0 12000 \, 0 0 12010 \, 1 0 21000 \, 0 0 21100
\, 1 0 31000 \, 0 0 31100 \, 1 0 41000 \, 0 0 41100 \, 1 0 53000 \,
0 0 53100 \, 1 0 65000 \, 0 0 65100 \, 1 0 75000 \, 0 0 75100 \, 1
0 88000 \, 0 0 88100 \, 1 0 103000 \, 0 0 103100 \, 1 0 113000 \, 0
0 113100 \, 1 0 121000 \, 0 0 121100;
#X obj 1115 59 r \$0-start;
#X obj 1184 58 r \$0-stop;
#X msg 1184 82 stop;
#X obj 1115 82 t b b;
#X obj 1208 138 timer;
#X text 1293 161 file length;
#X obj 1234 162 nbx 5 14 -1e+37 1e+37 0 0 empty empty empty 0 -8 0
10 -262144 -1 -1 140531 256;
#X obj 1116 150 volume~;
#X msg 1223 106 1;
#X obj 1223 83 loadbang;
#X text 1252 108 init vol;
#X obj 1119 422 tgl 15 0 empty empty empty 17 7 0 10 -262144 -1 -1
0 1;
#X obj 1119 394 r \$0-headphones;
#X obj 1115 108 elooper~;
#X obj 1221 502 2_ch_selector;
#X floatatom 1263 361 5 0 0 0 - - -, f 5;
#X obj 1305 337 mod 2;
#X obj 1221 473 *~;
#X obj 1263 299 f;
#X obj 1296 299 + 1;
#X obj 1258 389 8_ch_selector;
#X obj 1396 274 vline~;
#X obj 1427 367 snapshot~;
#X obj 1429 312 bng 15 250 50 0 empty empty empty 17 7 0 10 -262144
-1 -1;
#X obj 1427 393 change 0;
#X obj 1459 301 loadbang;
#X obj 1427 343 metro 50;
#X obj 1425 419 select 1;
#X obj 1263 337 mod 8;
#X msg 1163 29 bar_dings_pendants;
#X msg 1227 192 0 \, 1 0 17000 \, 0 0 17010 \, 1 0 36000 \, 0 0 36100
\, 1 0 57000 \, 0 0 57100 \, 1 0 78000 \, 0 0 78100 \, 1 0 95000 \,
0 0 95100 \, 1 0 115000 \, 0 0 115100 \, 1 0 133000 \, 0 0 133100;
#X obj 50 603 r \$0-start;
#X obj 119 602 r \$0-stop;
#X msg 119 626 stop;
#X obj 50 626 t b b;
#X obj 143 682 timer;
#X text 228 705 file length;
#X obj 169 706 nbx 5 14 -1e+37 1e+37 0 0 empty empty empty 0 -8 0 10
-262144 -1 -1 50177.3 256;
#X obj 51 694 volume~;
#X msg 158 650 1;
#X obj 158 627 loadbang;
#X text 187 652 init vol;
#X obj 54 966 tgl 15 0 empty empty empty 17 7 0 10 -262144 -1 -1 0
1;
#X obj 54 938 r \$0-headphones;
#X obj 50 652 elooper~;
#X obj 156 1046 2_ch_selector;
#X floatatom 198 905 5 0 0 0 - - -, f 5;
#X obj 240 881 mod 2;
#X obj 156 1017 *~;
#X obj 198 843 f;
#X obj 231 843 + 1;
#X obj 193 933 8_ch_selector;
#X obj 184 771 bng 15 250 50 0 empty empty empty 17 7 0 10 -262144
-1 -1;
#X obj 214 760 loadbang;
#X obj 198 881 mod 8;
#X msg 98 573 bar_chirps_pendants;
#X obj 182 802 metro 1200;
#X obj 62 -61 r bar;
#X obj 437 -52 inlet;
#X connect 0 0 3 0;
#X connect 1 0 2 0;
#X connect 2 0 13 0;
#X connect 3 0 13 0;
#X connect 3 1 20 0;
#X connect 4 0 6 0;
#X connect 7 0 17 0;
#X connect 7 0 28 0;
#X connect 8 0 7 1;
#X connect 9 0 8 0;
#X connect 11 0 17 1;
#X connect 12 0 11 0;
#X connect 13 0 7 0;
#X connect 13 1 4 0;
#X connect 13 1 37 0;
#X connect 13 2 4 1;
#X connect 13 2 37 0;
#X connect 16 0 14 1;
#X connect 17 0 14 0;
#X connect 18 0 19 0;
#X connect 18 0 16 0;
#X connect 18 0 36 0;
#X connect 19 0 18 1;
#X connect 20 0 13 2;
#X connect 22 0 21 0;
#X connect 23 0 24 0;
#X connect 26 0 25 0;
#X connect 27 0 23 0;
#X connect 27 1 22 0;
#X connect 29 0 30 0;
#X connect 30 0 32 0;
#X connect 31 0 34 0;
#X connect 32 0 35 0;
#X connect 33 0 34 0;
#X connect 34 0 30 0;
#X connect 35 0 18 0;
#X connect 36 0 15 0;
#X connect 36 0 28 1;
#X connect 37 0 29 0;
#X connect 38 0 41 0;
#X connect 39 0 40 0;
#X connect 40 0 51 0;
#X connect 41 0 51 0;
#X connect 41 1 67 0;
#X connect 42 0 44 0;
#X connect 45 0 55 0;
#X connect 45 0 58 0;
#X connect 46 0 45 1;
#X connect 47 0 46 0;
#X connect 49 0 55 1;
#X connect 50 0 49 0;
#X connect 51 0 45 0;
#X connect 51 1 42 0;
#X connect 51 1 68 0;
#X connect 51 2 42 1;
#X connect 51 2 68 0;
#X connect 54 0 52 1;
#X connect 55 0 52 0;
#X connect 56 0 57 0;
#X connect 56 0 54 0;
#X connect 56 0 66 0;
#X connect 57 0 56 1;
#X connect 59 0 60 0;
#X connect 60 0 62 0;
#X connect 61 0 64 0;
#X connect 62 0 65 0;
#X connect 63 0 64 0;
#X connect 64 0 60 0;
#X connect 65 0 56 0;
#X connect 66 0 53 0;
#X connect 66 0 58 1;
#X connect 67 0 51 2;
#X connect 68 0 59 0;
#X connect 69 0 72 0;
#X connect 70 0 71 0;
#X connect 71 0 82 0;
#X connect 72 0 82 0;
#X connect 72 1 98 0;
#X connect 73 0 75 0;
#X connect 76 0 86 0;
#X connect 76 0 89 0;
#X connect 77 0 76 1;
#X connect 78 0 77 0;
#X connect 80 0 86 1;
#X connect 81 0 80 0;
#X connect 82 0 76 0;
#X connect 82 1 73 0;
#X connect 82 1 99 0;
#X connect 82 2 73 1;
#X connect 82 2 99 0;
#X connect 85 0 83 1;
#X connect 86 0 83 0;
#X connect 87 0 88 0;
#X connect 87 0 85 0;
#X connect 87 0 97 0;
#X connect 88 0 87 1;
#X connect 90 0 91 0;
#X connect 91 0 93 0;
#X connect 92 0 95 0;
#X connect 93 0 96 0;
#X connect 94 0 95 0;
#X connect 95 0 91 0;
#X connect 96 0 87 0;
#X connect 97 0 84 0;
#X connect 97 0 89 1;
#X connect 98 0 82 2;
#X connect 99 0 90 0;
#X connect 100 0 103 0;
#X connect 101 0 102 0;
#X connect 102 0 113 0;
#X connect 103 0 113 0;
#X connect 103 1 124 0;
#X connect 104 0 106 0;
#X connect 107 0 117 0;
#X connect 107 0 120 0;
#X connect 108 0 107 1;
#X connect 109 0 108 0;
#X connect 111 0 117 1;
#X connect 112 0 111 0;
#X connect 113 0 107 0;
#X connect 113 1 104 0;
#X connect 113 2 104 1;
#X connect 116 0 114 1;
#X connect 117 0 114 0;
#X connect 118 0 119 0;
#X connect 118 0 116 0;
#X connect 118 0 123 0;
#X connect 119 0 118 1;
#X connect 121 0 125 0;
#X connect 122 0 125 0;
#X connect 123 0 115 0;
#X connect 123 0 120 1;
#X connect 124 0 113 2;
#X connect 125 0 118 0;
#X connect 126 0 27 0;
#X connect 127 0 26 0;
