#N canvas 543 196 1187 690 10;
#X obj 42 127 r \$0-start;
#X obj 111 126 r \$0-stop;
#X msg 111 150 stop;
#X obj 42 150 t b b;
#X obj 135 206 timer;
#X text 188 214 file length;
#X obj 42 202 volume~;
#X msg 150 174 1;
#X obj 150 151 loadbang;
#X text 179 176 init vol;
#X obj 42 176 elooper~;
#X msg 135 231 set \$1;
#X msg 185 232 77977;
#X obj 55 424 bar_pa_thrower, f 27;
#X obj 47 9 s \$0-start;
#X obj 47 -11 bng 15 250 50 0 empty empty empty 17 7 0 10 -262144 -1
-1;
#X obj 117 -11 bng 15 250 50 0 empty empty empty 17 7 0 10 -262144
-1 -1;
#X obj 117 9 s \$0-stop;
#X obj 49 -34 sel 0 1;
#X obj 49 -59 r bar;
#X obj 288 127 r \$0-start;
#X obj 357 126 r \$0-stop;
#X msg 357 150 stop;
#X obj 288 150 t b b;
#X obj 381 206 timer;
#X text 434 214 file length;
#X obj 288 202 volume~;
#X msg 396 174 1;
#X obj 396 151 loadbang;
#X text 425 176 init vol;
#X obj 288 176 elooper~;
#X msg 381 231 set \$1;
#X msg 431 232 77977;
#X msg 90 97 bar_basshits_pa;
#X msg 336 97 bar_bassline_pa;
#X obj 531 122 r \$0-start;
#X obj 600 121 r \$0-stop;
#X msg 600 145 stop;
#X obj 531 145 t b b;
#X obj 624 201 timer;
#X text 677 209 file length;
#X obj 531 197 volume~;
#X msg 639 169 1;
#X obj 639 146 loadbang;
#X text 668 171 init vol;
#X obj 531 171 elooper~;
#X msg 624 226 set \$1;
#X msg 674 227 77977;
#X obj 777 122 r \$0-start;
#X obj 846 121 r \$0-stop;
#X msg 846 145 stop;
#X obj 777 145 t b b;
#X obj 870 201 timer;
#X text 923 209 file length;
#X obj 777 197 volume~;
#X msg 885 169 1;
#X obj 885 146 loadbang;
#X text 914 171 init vol;
#X obj 777 171 elooper~;
#X msg 870 226 set \$1;
#X msg 920 227 77977;
#X msg 579 92 bar_bassbit_pa;
#X msg 825 92 bar_booms_pa;
#X obj 42 507 r \$0-start;
#X obj 111 506 r \$0-stop;
#X msg 111 530 stop;
#X obj 42 530 t b b;
#X obj 135 586 timer;
#X text 188 594 file length;
#X obj 42 582 volume~;
#X msg 150 554 1;
#X obj 150 531 loadbang;
#X text 179 556 init vol;
#X obj 42 556 elooper~;
#X msg 135 611 set \$1;
#X msg 185 612 77977;
#X obj 288 507 r \$0-start;
#X obj 357 506 r \$0-stop;
#X msg 357 530 stop;
#X obj 288 530 t b b;
#X obj 381 586 timer;
#X text 434 594 file length;
#X obj 288 582 volume~;
#X msg 396 554 1;
#X obj 396 531 loadbang;
#X text 425 556 init vol;
#X obj 288 556 elooper~;
#X msg 381 611 set \$1;
#X msg 431 612 77977;
#X obj 531 502 r \$0-start;
#X obj 600 501 r \$0-stop;
#X msg 600 525 stop;
#X obj 531 525 t b b;
#X obj 624 581 timer;
#X text 677 589 file length;
#X obj 531 577 volume~;
#X msg 639 549 1;
#X obj 639 526 loadbang;
#X text 668 551 init vol;
#X obj 531 551 elooper~;
#X msg 624 606 set \$1;
#X msg 674 607 77977;
#X obj 777 502 r \$0-start;
#X obj 846 501 r \$0-stop;
#X msg 846 525 stop;
#X obj 777 525 t b b;
#X obj 870 581 timer;
#X text 923 589 file length;
#X obj 777 577 volume~;
#X msg 885 549 1;
#X obj 885 526 loadbang;
#X text 914 551 init vol;
#X obj 777 551 elooper~;
#X msg 870 606 set \$1;
#X msg 920 607 77977;
#X msg 825 472 bar_booms_pa;
#X msg 90 477 bar_arpeggio_pa;
#X msg 336 477 bar_dingbeat_pa;
#X msg 579 472 bar_drums_pa;
#X obj 39 887 r \$0-start;
#X obj 108 886 r \$0-stop;
#X msg 108 910 stop;
#X obj 39 910 t b b;
#X obj 132 966 timer;
#X text 185 974 file length;
#X obj 39 962 volume~;
#X msg 147 934 1;
#X obj 147 911 loadbang;
#X text 176 936 init vol;
#X obj 39 936 elooper~;
#X msg 132 991 set \$1;
#X msg 182 992 77977;
#X obj 285 887 r \$0-start;
#X obj 354 886 r \$0-stop;
#X msg 354 910 stop;
#X obj 285 910 t b b;
#X obj 378 966 timer;
#X text 431 974 file length;
#X obj 285 962 volume~;
#X msg 393 934 1;
#X obj 393 911 loadbang;
#X text 422 936 init vol;
#X obj 285 936 elooper~;
#X msg 378 991 set \$1;
#X msg 428 992 77977;
#X obj 528 882 r \$0-start;
#X obj 597 881 r \$0-stop;
#X msg 597 905 stop;
#X obj 528 905 t b b;
#X obj 621 961 timer;
#X text 674 969 file length;
#X obj 528 957 volume~;
#X msg 636 929 1;
#X obj 636 906 loadbang;
#X text 665 931 init vol;
#X obj 528 931 elooper~;
#X msg 621 986 set \$1;
#X msg 671 987 77977;
#X obj 774 882 r \$0-start;
#X obj 843 881 r \$0-stop;
#X msg 843 905 stop;
#X obj 774 905 t b b;
#X obj 867 961 timer;
#X text 920 969 file length;
#X obj 774 957 volume~;
#X msg 882 929 1;
#X obj 882 906 loadbang;
#X text 911 931 init vol;
#X obj 774 931 elooper~;
#X msg 867 986 set \$1;
#X msg 917 987 77977;
#X msg 87 857 bar_kick_pa;
#X msg 333 857 bar_melody_pa;
#X msg 576 852 bar_porta_pa;
#X msg 822 852 bar_quietnotes_pa;
#X obj 69 1255 r \$0-start;
#X obj 138 1254 r \$0-stop;
#X msg 138 1278 stop;
#X obj 69 1278 t b b;
#X obj 162 1334 timer;
#X text 215 1342 file length;
#X obj 69 1330 volume~;
#X msg 177 1302 1;
#X obj 177 1279 loadbang;
#X text 206 1304 init vol;
#X obj 69 1304 elooper~;
#X msg 162 1359 set \$1;
#X msg 212 1360 77977;
#X obj 315 1255 r \$0-start;
#X obj 384 1254 r \$0-stop;
#X msg 384 1278 stop;
#X obj 315 1278 t b b;
#X obj 408 1334 timer;
#X text 461 1342 file length;
#X obj 315 1330 volume~;
#X msg 423 1302 1;
#X obj 423 1279 loadbang;
#X text 452 1304 init vol;
#X obj 315 1304 elooper~;
#X msg 408 1359 set \$1;
#X msg 458 1360 77977;
#X obj 558 1250 r \$0-start;
#X obj 627 1249 r \$0-stop;
#X msg 627 1273 stop;
#X obj 558 1273 t b b;
#X obj 651 1329 timer;
#X text 704 1337 file length;
#X obj 558 1325 volume~;
#X msg 666 1297 1;
#X obj 666 1274 loadbang;
#X text 695 1299 init vol;
#X obj 558 1299 elooper~;
#X msg 651 1354 set \$1;
#X msg 701 1355 77977;
#X msg 117 1225 bar_rhythmbass_pa;
#X msg 363 1225 bar_shaker_pa;
#X msg 606 1221 bar_strings_pa;
#X obj 438 -4 s \$0-headphones;
#X obj 440 -29 tgl 15 0 empty empty empty 17 7 0 10 -262144 -1 -1 1
1;
#X obj 437 -54 inlet;
#X obj 34 393 *~;
#X obj 80 385 r \$0-headphones;
#X obj 317 428 bar_pa_thrower, f 27;
#X obj 296 397 *~;
#X obj 342 389 r \$0-headphones;
#X obj 550 423 bar_pa_thrower, f 27;
#X obj 529 392 *~;
#X obj 575 384 r \$0-headphones;
#X obj 812 427 bar_pa_thrower, f 27;
#X obj 791 396 *~;
#X obj 837 388 r \$0-headphones;
#X obj 64 805 bar_pa_thrower, f 27;
#X obj 43 774 *~;
#X obj 89 766 r \$0-headphones;
#X obj 326 809 bar_pa_thrower, f 27;
#X obj 305 778 *~;
#X obj 351 770 r \$0-headphones;
#X obj 559 804 bar_pa_thrower, f 27;
#X obj 538 773 *~;
#X obj 584 765 r \$0-headphones;
#X obj 821 808 bar_pa_thrower, f 27;
#X obj 800 777 *~;
#X obj 846 769 r \$0-headphones;
#X obj 62 1180 bar_pa_thrower, f 27;
#X obj 41 1149 *~;
#X obj 87 1141 r \$0-headphones;
#X obj 324 1184 bar_pa_thrower, f 27;
#X obj 303 1153 *~;
#X obj 349 1145 r \$0-headphones;
#X obj 557 1179 bar_pa_thrower, f 27;
#X obj 536 1148 *~;
#X obj 582 1140 r \$0-headphones;
#X obj 819 1183 bar_pa_thrower, f 27;
#X obj 798 1152 *~;
#X obj 844 1144 r \$0-headphones;
#X obj 84 1549 bar_pa_thrower, f 27;
#X obj 63 1518 *~;
#X obj 109 1510 r \$0-headphones;
#X obj 346 1553 bar_pa_thrower, f 27;
#X obj 325 1522 *~;
#X obj 371 1514 r \$0-headphones;
#X obj 579 1548 bar_pa_thrower, f 27;
#X obj 558 1517 *~;
#X obj 604 1509 r \$0-headphones;
#X connect 0 0 3 0;
#X connect 1 0 2 0;
#X connect 2 0 10 0;
#X connect 3 0 10 0;
#X connect 3 1 33 0;
#X connect 4 0 11 0;
#X connect 6 0 220 0;
#X connect 7 0 6 1;
#X connect 8 0 7 0;
#X connect 10 0 6 0;
#X connect 10 1 4 0;
#X connect 10 2 4 1;
#X connect 11 0 12 0;
#X connect 15 0 14 0;
#X connect 16 0 17 0;
#X connect 18 0 16 0;
#X connect 18 1 15 0;
#X connect 19 0 18 0;
#X connect 20 0 23 0;
#X connect 21 0 22 0;
#X connect 22 0 30 0;
#X connect 23 0 30 0;
#X connect 23 1 34 0;
#X connect 24 0 31 0;
#X connect 26 0 223 0;
#X connect 27 0 26 1;
#X connect 28 0 27 0;
#X connect 30 0 26 0;
#X connect 30 1 24 0;
#X connect 30 2 24 1;
#X connect 31 0 32 0;
#X connect 33 0 10 2;
#X connect 34 0 30 2;
#X connect 35 0 38 0;
#X connect 36 0 37 0;
#X connect 37 0 45 0;
#X connect 38 0 45 0;
#X connect 38 1 61 0;
#X connect 39 0 46 0;
#X connect 41 0 226 0;
#X connect 42 0 41 1;
#X connect 43 0 42 0;
#X connect 45 0 41 0;
#X connect 45 1 39 0;
#X connect 45 2 39 1;
#X connect 46 0 47 0;
#X connect 48 0 51 0;
#X connect 49 0 50 0;
#X connect 50 0 58 0;
#X connect 51 0 58 0;
#X connect 51 1 62 0;
#X connect 52 0 59 0;
#X connect 54 0 229 0;
#X connect 55 0 54 1;
#X connect 56 0 55 0;
#X connect 58 0 54 0;
#X connect 58 1 52 0;
#X connect 58 2 52 1;
#X connect 59 0 60 0;
#X connect 61 0 45 2;
#X connect 62 0 58 2;
#X connect 63 0 66 0;
#X connect 64 0 65 0;
#X connect 65 0 73 0;
#X connect 66 0 73 0;
#X connect 66 1 116 0;
#X connect 67 0 74 0;
#X connect 69 0 232 0;
#X connect 70 0 69 1;
#X connect 71 0 70 0;
#X connect 73 0 69 0;
#X connect 73 1 67 0;
#X connect 73 2 67 1;
#X connect 74 0 75 0;
#X connect 76 0 79 0;
#X connect 77 0 78 0;
#X connect 78 0 86 0;
#X connect 79 0 86 0;
#X connect 79 1 117 0;
#X connect 80 0 87 0;
#X connect 82 0 235 0;
#X connect 83 0 82 1;
#X connect 84 0 83 0;
#X connect 86 0 82 0;
#X connect 86 1 80 0;
#X connect 86 2 80 1;
#X connect 87 0 88 0;
#X connect 89 0 92 0;
#X connect 90 0 91 0;
#X connect 91 0 99 0;
#X connect 92 0 99 0;
#X connect 92 1 118 0;
#X connect 93 0 100 0;
#X connect 95 0 238 0;
#X connect 96 0 95 1;
#X connect 97 0 96 0;
#X connect 99 0 95 0;
#X connect 99 1 93 0;
#X connect 99 2 93 1;
#X connect 100 0 101 0;
#X connect 102 0 105 0;
#X connect 103 0 104 0;
#X connect 104 0 112 0;
#X connect 105 0 112 0;
#X connect 105 1 115 0;
#X connect 106 0 113 0;
#X connect 108 0 241 0;
#X connect 109 0 108 1;
#X connect 110 0 109 0;
#X connect 112 0 108 0;
#X connect 112 1 106 0;
#X connect 112 2 106 1;
#X connect 113 0 114 0;
#X connect 115 0 112 2;
#X connect 116 0 73 2;
#X connect 117 0 86 2;
#X connect 118 0 99 2;
#X connect 119 0 122 0;
#X connect 120 0 121 0;
#X connect 121 0 129 0;
#X connect 122 0 129 0;
#X connect 122 1 171 0;
#X connect 123 0 130 0;
#X connect 125 0 244 0;
#X connect 126 0 125 1;
#X connect 127 0 126 0;
#X connect 129 0 125 0;
#X connect 129 1 123 0;
#X connect 129 2 123 1;
#X connect 130 0 131 0;
#X connect 132 0 135 0;
#X connect 133 0 134 0;
#X connect 134 0 142 0;
#X connect 135 0 142 0;
#X connect 135 1 172 0;
#X connect 136 0 143 0;
#X connect 138 0 247 0;
#X connect 139 0 138 1;
#X connect 140 0 139 0;
#X connect 142 0 138 0;
#X connect 142 1 136 0;
#X connect 142 2 136 1;
#X connect 143 0 144 0;
#X connect 145 0 148 0;
#X connect 146 0 147 0;
#X connect 147 0 155 0;
#X connect 148 0 155 0;
#X connect 148 1 173 0;
#X connect 149 0 156 0;
#X connect 151 0 250 0;
#X connect 152 0 151 1;
#X connect 153 0 152 0;
#X connect 155 0 151 0;
#X connect 155 1 149 0;
#X connect 155 2 149 1;
#X connect 156 0 157 0;
#X connect 158 0 161 0;
#X connect 159 0 160 0;
#X connect 160 0 168 0;
#X connect 161 0 168 0;
#X connect 161 1 174 0;
#X connect 162 0 169 0;
#X connect 164 0 253 0;
#X connect 165 0 164 1;
#X connect 166 0 165 0;
#X connect 168 0 164 0;
#X connect 168 1 162 0;
#X connect 168 2 162 1;
#X connect 169 0 170 0;
#X connect 171 0 129 2;
#X connect 172 0 142 2;
#X connect 173 0 155 2;
#X connect 174 0 168 2;
#X connect 175 0 178 0;
#X connect 176 0 177 0;
#X connect 177 0 185 0;
#X connect 178 0 185 0;
#X connect 178 1 214 0;
#X connect 179 0 186 0;
#X connect 181 0 256 0;
#X connect 182 0 181 1;
#X connect 183 0 182 0;
#X connect 185 0 181 0;
#X connect 185 1 179 0;
#X connect 185 2 179 1;
#X connect 186 0 187 0;
#X connect 188 0 191 0;
#X connect 189 0 190 0;
#X connect 190 0 198 0;
#X connect 191 0 198 0;
#X connect 191 1 215 0;
#X connect 192 0 199 0;
#X connect 194 0 259 0;
#X connect 195 0 194 1;
#X connect 196 0 195 0;
#X connect 198 0 194 0;
#X connect 198 1 192 0;
#X connect 198 2 192 1;
#X connect 199 0 200 0;
#X connect 201 0 204 0;
#X connect 202 0 203 0;
#X connect 203 0 211 0;
#X connect 204 0 211 0;
#X connect 204 1 216 0;
#X connect 205 0 212 0;
#X connect 207 0 262 0;
#X connect 208 0 207 1;
#X connect 209 0 208 0;
#X connect 211 0 207 0;
#X connect 211 1 205 0;
#X connect 211 2 205 1;
#X connect 212 0 213 0;
#X connect 214 0 185 2;
#X connect 215 0 198 2;
#X connect 216 0 211 2;
#X connect 218 0 217 0;
#X connect 219 0 218 0;
#X connect 220 0 13 0;
#X connect 221 0 220 1;
#X connect 223 0 222 0;
#X connect 224 0 223 1;
#X connect 226 0 225 0;
#X connect 227 0 226 1;
#X connect 229 0 228 0;
#X connect 230 0 229 1;
#X connect 232 0 231 0;
#X connect 233 0 232 1;
#X connect 235 0 234 0;
#X connect 236 0 235 1;
#X connect 238 0 237 0;
#X connect 239 0 238 1;
#X connect 241 0 240 0;
#X connect 242 0 241 1;
#X connect 244 0 243 0;
#X connect 245 0 244 1;
#X connect 247 0 246 0;
#X connect 248 0 247 1;
#X connect 250 0 249 0;
#X connect 251 0 250 1;
#X connect 253 0 252 0;
#X connect 254 0 253 1;
#X connect 256 0 255 0;
#X connect 257 0 256 1;
#X connect 259 0 258 0;
#X connect 260 0 259 1;
#X connect 262 0 261 0;
#X connect 263 0 262 1;
