#N canvas 148 23 1376 994 10;
#X obj 232 393 auto_pan;
#X floatatom 207 426 5 0 0 0 - - -, f 5;
#X obj 155 396 loadbang;
#X text 233 322 pan time;
#X text 151 374 pan width;
#X msg 155 422 0;
#X obj 218 200 r \$0-start;
#X obj 125 71 r \$0-start;
#X obj 248 221 r \$0-stop;
#X msg 218 249 1;
#X msg 248 249 0;
#X obj 194 70 r \$0-stop;
#X msg 194 94 stop;
#X obj 112 525 panner~;
#X obj 112 563 throw~ devL;
#X obj 189 563 throw~ devR;
#X obj 125 94 t b b;
#X obj 218 150 timer;
#X text 271 158 file length;
#X obj 125 146 volume~;
#X msg 233 118 1;
#X obj 233 95 loadbang;
#X text 262 120 init vol;
#X obj 88 491 *~;
#X obj 52 446 tgl 15 0 empty empty empty 17 7 0 10 -262144 -1 -1 1
1;
#X obj 52 418 r \$0-headphones;
#X obj 125 120 elooper~;
#X msg 173 41 bar_beatslap_pendants;
#X obj 60 5 s \$0-start;
#X obj 60 -15 bng 15 250 50 0 empty empty empty 17 7 0 10 -262144 -1
-1;
#X obj 130 -15 bng 15 250 50 0 empty empty empty 17 7 0 10 -262144
-1 -1;
#X obj 130 5 s \$0-stop;
#X obj 438 -4 s \$0-headphones;
#X obj 440 -29 tgl 15 0 empty empty empty 17 7 0 10 -262144 -1 -1 1
1;
#X obj 62 -38 sel 0 1;
#X obj 125 450 linear_panner_8ch~, f 27;
#X obj 125 488 bar_pendant_thrower, f 27;
#X obj 615 382 auto_pan;
#X floatatom 590 415 5 0 0 0 - - -, f 5;
#X obj 538 385 loadbang;
#X text 616 311 pan time;
#X text 534 363 pan width;
#X msg 538 411 0;
#X obj 601 189 r \$0-start;
#X obj 508 60 r \$0-start;
#X obj 631 210 r \$0-stop;
#X msg 601 238 1;
#X msg 631 238 0;
#X obj 577 59 r \$0-stop;
#X msg 577 83 stop;
#X obj 495 514 panner~;
#X obj 495 552 throw~ devL;
#X obj 572 552 throw~ devR;
#X obj 508 83 t b b;
#X obj 601 139 timer;
#X text 660 164 file length;
#X obj 601 165 nbx 5 14 -1e+37 1e+37 0 0 empty empty empty 0 -8 0 10
-262144 -1 -1 234490 256;
#X obj 508 135 volume~;
#X msg 616 107 1;
#X obj 616 84 loadbang;
#X text 645 109 init vol;
#X obj 471 480 *~;
#X obj 435 435 tgl 15 0 empty empty empty 17 7 0 10 -262144 -1 -1 1
1;
#X obj 435 407 r \$0-headphones;
#X obj 508 109 elooper~;
#X obj 508 439 linear_panner_8ch~, f 27;
#X obj 508 477 bar_pendant_thrower, f 27;
#X msg 556 30 bar_stutter_pendants;
#X msg 605 346 0 15000 \, 1 15000 15000;
#X msg 222 357 1 15000 \, 0 15000 15000;
#X msg 218 175 set \$1;
#X msg 268 176 234490;
#X obj 998 385 auto_pan;
#X floatatom 973 418 5 0 0 0 - - -, f 5;
#X obj 921 388 loadbang;
#X text 999 314 pan time;
#X text 917 366 pan width;
#X msg 921 414 0;
#X obj 984 192 r \$0-start;
#X obj 891 63 r \$0-start;
#X obj 1014 213 r \$0-stop;
#X msg 984 241 1;
#X msg 1014 241 0;
#X obj 960 62 r \$0-stop;
#X msg 960 86 stop;
#X obj 878 517 panner~;
#X obj 878 555 throw~ devL;
#X obj 955 555 throw~ devR;
#X obj 891 86 t b b;
#X obj 984 142 timer;
#X text 1037 150 file length;
#X obj 891 138 volume~;
#X msg 999 110 1;
#X obj 999 87 loadbang;
#X text 1028 112 init vol;
#X obj 854 483 *~;
#X obj 818 438 tgl 15 0 empty empty empty 17 7 0 10 -262144 -1 -1 1
1;
#X obj 818 410 r \$0-headphones;
#X obj 891 112 elooper~;
#X obj 891 442 linear_panner_8ch~, f 27;
#X obj 891 480 bar_pendant_thrower, f 27;
#X msg 988 349 1 15000 \, 0 15000 15000;
#X msg 984 167 set \$1;
#X msg 1034 168 234490;
#X obj 203 981 auto_pan;
#X floatatom 178 1014 5 0 0 0 - - -, f 5;
#X obj 126 984 loadbang;
#X text 204 910 pan time;
#X text 122 962 pan width;
#X msg 126 1010 0;
#X obj 189 788 r \$0-start;
#X obj 96 659 r \$0-start;
#X obj 219 809 r \$0-stop;
#X msg 189 837 1;
#X msg 219 837 0;
#X obj 165 658 r \$0-stop;
#X msg 165 682 stop;
#X obj 83 1113 panner~;
#X obj 83 1151 throw~ devL;
#X obj 160 1151 throw~ devR;
#X obj 96 682 t b b;
#X obj 189 738 timer;
#X text 242 746 file length;
#X obj 96 734 volume~;
#X msg 204 706 1;
#X obj 204 683 loadbang;
#X text 233 708 init vol;
#X obj 59 1079 *~;
#X obj 23 1034 tgl 15 0 empty empty empty 17 7 0 10 -262144 -1 -1 1
1;
#X obj 23 1006 r \$0-headphones;
#X obj 96 708 elooper~;
#X obj 96 1038 linear_panner_8ch~, f 27;
#X obj 96 1076 bar_pendant_thrower, f 27;
#X msg 193 945 1 15000 \, 0 15000 15000;
#X msg 189 763 set \$1;
#X msg 239 764 434683;
#X msg 939 33 bar_hiblurb_pendants;
#X obj 573 967 auto_pan;
#X floatatom 548 1000 5 0 0 0 - - -, f 5;
#X obj 496 970 loadbang;
#X text 574 896 pan time;
#X text 492 948 pan width;
#X msg 496 996 0;
#X obj 559 774 r \$0-start;
#X obj 466 645 r \$0-start;
#X obj 589 795 r \$0-stop;
#X msg 559 823 1;
#X msg 589 823 0;
#X obj 535 644 r \$0-stop;
#X msg 535 668 stop;
#X obj 453 1099 panner~;
#X obj 453 1137 throw~ devL;
#X obj 530 1137 throw~ devR;
#X obj 466 668 t b b;
#X obj 559 724 timer;
#X text 612 732 file length;
#X obj 466 720 volume~;
#X msg 574 692 1;
#X obj 574 669 loadbang;
#X text 603 694 init vol;
#X obj 429 1065 *~;
#X obj 393 1020 tgl 15 0 empty empty empty 17 7 0 10 -262144 -1 -1
1 1;
#X obj 393 992 r \$0-headphones;
#X obj 466 694 elooper~;
#X obj 466 1024 linear_panner_8ch~, f 27;
#X obj 466 1062 bar_pendant_thrower, f 27;
#X msg 563 931 1 15000 \, 0 15000 15000;
#X msg 559 749 set \$1;
#X msg 609 750 234490;
#X msg 514 615 bar_blurb2_pendants;
#X msg 144 629 bar_medblurb_pendants;
#X obj 62 -63 r bar;
#X obj 218 272 metro 30000;
#X obj 601 261 metro 30000;
#X obj 984 264 metro 30000;
#X obj 189 860 metro 30000;
#X obj 559 846 metro 30000;
#X obj 962 960 auto_pan;
#X floatatom 937 993 5 0 0 0 - - -, f 5;
#X obj 885 963 loadbang;
#X text 963 889 pan time;
#X text 881 941 pan width;
#X msg 885 989 0;
#X obj 948 767 r \$0-start;
#X obj 855 638 r \$0-start;
#X obj 978 788 r \$0-stop;
#X msg 948 816 1;
#X msg 978 816 0;
#X obj 924 637 r \$0-stop;
#X msg 924 661 stop;
#X obj 842 1092 panner~;
#X obj 842 1130 throw~ devL;
#X obj 919 1130 throw~ devR;
#X obj 855 661 t b b;
#X obj 948 717 timer;
#X text 1001 725 file length;
#X obj 855 713 volume~;
#X msg 963 685 1;
#X obj 963 662 loadbang;
#X text 992 687 init vol;
#X obj 818 1058 *~;
#X obj 782 1013 tgl 15 0 empty empty empty 17 7 0 10 -262144 -1 -1
1 1;
#X obj 782 985 r \$0-headphones;
#X obj 855 687 elooper~;
#X obj 855 1017 linear_panner_8ch~, f 27;
#X obj 855 1055 bar_pendant_thrower, f 27;
#X msg 952 924 1 15000 \, 0 15000 15000;
#X msg 948 742 set \$1;
#X msg 998 743 234490;
#X obj 948 839 metro 30000;
#X msg 903 608 bar_bells_pendants;
#X obj 244 1555 auto_pan;
#X floatatom 219 1588 5 0 0 0 - - -, f 5;
#X obj 167 1558 loadbang;
#X text 245 1484 pan time;
#X text 163 1536 pan width;
#X msg 167 1584 0;
#X obj 230 1362 r \$0-start;
#X obj 137 1233 r \$0-start;
#X obj 260 1383 r \$0-stop;
#X msg 230 1411 1;
#X msg 260 1411 0;
#X obj 206 1232 r \$0-stop;
#X msg 206 1256 stop;
#X obj 124 1687 panner~;
#X obj 124 1725 throw~ devL;
#X obj 201 1725 throw~ devR;
#X obj 137 1256 t b b;
#X obj 230 1312 timer;
#X text 283 1320 file length;
#X obj 137 1308 volume~;
#X msg 245 1280 1;
#X obj 245 1257 loadbang;
#X text 274 1282 init vol;
#X obj 100 1653 *~;
#X obj 64 1608 tgl 15 0 empty empty empty 17 7 0 10 -262144 -1 -1 1
1;
#X obj 64 1580 r \$0-headphones;
#X obj 137 1282 elooper~;
#X obj 137 1612 linear_panner_8ch~, f 27;
#X obj 137 1650 bar_pendant_thrower, f 27;
#X msg 234 1519 1 15000 \, 0 15000 15000;
#X msg 230 1337 set \$1;
#X msg 280 1338 434683;
#X obj 614 1541 auto_pan;
#X floatatom 589 1574 5 0 0 0 - - -, f 5;
#X obj 537 1544 loadbang;
#X text 615 1470 pan time;
#X text 533 1522 pan width;
#X msg 537 1570 0;
#X obj 600 1348 r \$0-start;
#X obj 507 1219 r \$0-start;
#X obj 630 1369 r \$0-stop;
#X msg 600 1397 1;
#X msg 630 1397 0;
#X obj 576 1218 r \$0-stop;
#X msg 576 1242 stop;
#X obj 494 1673 panner~;
#X obj 494 1711 throw~ devL;
#X obj 571 1711 throw~ devR;
#X obj 507 1242 t b b;
#X obj 600 1298 timer;
#X text 653 1306 file length;
#X obj 507 1294 volume~;
#X msg 615 1266 1;
#X obj 615 1243 loadbang;
#X text 644 1268 init vol;
#X obj 470 1639 *~;
#X obj 434 1594 tgl 15 0 empty empty empty 17 7 0 10 -262144 -1 -1
1 1;
#X obj 434 1566 r \$0-headphones;
#X obj 507 1268 elooper~;
#X obj 507 1598 linear_panner_8ch~, f 27;
#X obj 507 1636 bar_pendant_thrower, f 27;
#X msg 604 1505 1 15000 \, 0 15000 15000;
#X msg 600 1323 set \$1;
#X msg 650 1324 434683;
#X obj 230 1434 metro 30000;
#X obj 600 1420 metro 30000;
#X obj 1003 1534 auto_pan;
#X floatatom 978 1567 5 0 0 0 - - -, f 5;
#X obj 926 1537 loadbang;
#X text 1004 1463 pan time;
#X text 922 1515 pan width;
#X msg 926 1563 0;
#X obj 989 1341 r \$0-start;
#X obj 896 1212 r \$0-start;
#X obj 1019 1362 r \$0-stop;
#X msg 989 1390 1;
#X msg 1019 1390 0;
#X obj 965 1211 r \$0-stop;
#X msg 965 1235 stop;
#X obj 883 1666 panner~;
#X obj 883 1704 throw~ devL;
#X obj 960 1704 throw~ devR;
#X obj 896 1235 t b b;
#X obj 989 1291 timer;
#X text 1042 1299 file length;
#X obj 896 1287 volume~;
#X msg 1004 1259 1;
#X obj 1004 1236 loadbang;
#X text 1033 1261 init vol;
#X obj 859 1632 *~;
#X obj 823 1587 tgl 15 0 empty empty empty 17 7 0 10 -262144 -1 -1
1 1;
#X obj 823 1559 r \$0-headphones;
#X obj 896 1261 elooper~;
#X obj 896 1591 linear_panner_8ch~, f 27;
#X obj 896 1629 bar_pendant_thrower, f 27;
#X msg 993 1498 1 15000 \, 0 15000 15000;
#X msg 989 1316 set \$1;
#X msg 1039 1317 434683;
#X obj 989 1413 metro 30000;
#X msg 185 1203 bar_cymbals_pendants;
#X msg 555 1189 bar_hidrone_pendants;
#X msg 944 1182 bar_underwater_pendants;
#X obj 116 1803 r \$0-start;
#X obj 185 1802 r \$0-stop;
#X msg 185 1826 stop;
#X obj 103 2295 throw~ devL;
#X obj 116 1826 t b b;
#X obj 209 1882 timer;
#X text 262 1890 file length;
#X obj 116 1878 volume~;
#X msg 224 1850 1;
#X obj 224 1827 loadbang;
#X text 253 1852 init vol;
#X obj 79 2223 *~;
#X obj 43 2178 tgl 15 0 empty empty empty 17 7 0 10 -262144 -1 -1 1
1;
#X obj 43 2150 r \$0-headphones;
#X obj 116 1852 elooper~;
#X obj 136 2089 bar_pendant_thrower, f 27;
#X msg 209 1907 set \$1;
#X msg 259 1908 434683;
#X obj 486 1789 r \$0-start;
#X obj 555 1788 r \$0-stop;
#X msg 555 1812 stop;
#X obj 550 2281 throw~ devR;
#X obj 486 1812 t b b;
#X obj 579 1868 timer;
#X text 632 1876 file length;
#X obj 486 1864 volume~;
#X msg 594 1836 1;
#X obj 594 1813 loadbang;
#X text 623 1838 init vol;
#X obj 449 2209 *~;
#X obj 413 2164 tgl 15 0 empty empty empty 17 7 0 10 -262144 -1 -1
1 1;
#X obj 413 2136 r \$0-headphones;
#X obj 486 1838 elooper~;
#X obj 498 2077 bar_pendant_thrower, f 27;
#X msg 579 1893 set \$1;
#X msg 629 1894 434683;
#X msg 164 1773 bar_swishnotes_13_14_15;
#X msg 534 1759 bar_swishnotes_18_19_20;
#X obj 437 -54 inlet;
#X connect 0 0 1 0;
#X connect 0 0 13 1;
#X connect 0 0 35 2;
#X connect 2 0 5 0;
#X connect 5 0 35 1;
#X connect 6 0 9 0;
#X connect 7 0 16 0;
#X connect 8 0 10 0;
#X connect 9 0 172 0;
#X connect 10 0 172 0;
#X connect 11 0 12 0;
#X connect 12 0 26 0;
#X connect 13 0 14 0;
#X connect 13 1 15 0;
#X connect 16 0 26 0;
#X connect 16 1 27 0;
#X connect 17 0 70 0;
#X connect 19 0 23 0;
#X connect 19 0 35 0;
#X connect 20 0 19 1;
#X connect 21 0 20 0;
#X connect 23 0 13 0;
#X connect 24 0 23 1;
#X connect 25 0 24 0;
#X connect 26 0 19 0;
#X connect 26 1 17 0;
#X connect 26 2 17 1;
#X connect 27 0 26 2;
#X connect 29 0 28 0;
#X connect 30 0 31 0;
#X connect 33 0 32 0;
#X connect 34 0 30 0;
#X connect 34 1 29 0;
#X connect 35 0 36 0;
#X connect 35 1 36 1;
#X connect 35 2 36 2;
#X connect 35 3 36 3;
#X connect 35 4 36 4;
#X connect 35 5 36 5;
#X connect 35 6 36 6;
#X connect 35 7 36 7;
#X connect 37 0 38 0;
#X connect 37 0 50 1;
#X connect 37 0 65 2;
#X connect 39 0 42 0;
#X connect 42 0 65 1;
#X connect 43 0 46 0;
#X connect 44 0 53 0;
#X connect 45 0 47 0;
#X connect 46 0 173 0;
#X connect 47 0 173 0;
#X connect 48 0 49 0;
#X connect 49 0 64 0;
#X connect 50 0 51 0;
#X connect 50 1 52 0;
#X connect 53 0 64 0;
#X connect 53 1 67 0;
#X connect 54 0 56 0;
#X connect 57 0 61 0;
#X connect 57 0 65 0;
#X connect 58 0 57 1;
#X connect 59 0 58 0;
#X connect 61 0 50 0;
#X connect 62 0 61 1;
#X connect 63 0 62 0;
#X connect 64 0 57 0;
#X connect 64 1 54 0;
#X connect 64 2 54 1;
#X connect 65 0 66 0;
#X connect 65 1 66 1;
#X connect 65 2 66 2;
#X connect 65 3 66 3;
#X connect 65 4 66 4;
#X connect 65 5 66 5;
#X connect 65 6 66 6;
#X connect 65 7 66 7;
#X connect 67 0 64 2;
#X connect 68 0 37 0;
#X connect 69 0 0 0;
#X connect 70 0 71 0;
#X connect 72 0 73 0;
#X connect 72 0 85 1;
#X connect 72 0 99 2;
#X connect 74 0 77 0;
#X connect 77 0 99 1;
#X connect 78 0 81 0;
#X connect 79 0 88 0;
#X connect 80 0 82 0;
#X connect 81 0 174 0;
#X connect 82 0 174 0;
#X connect 83 0 84 0;
#X connect 84 0 98 0;
#X connect 85 0 86 0;
#X connect 85 1 87 0;
#X connect 88 0 98 0;
#X connect 88 1 136 0;
#X connect 89 0 102 0;
#X connect 91 0 95 0;
#X connect 91 0 99 0;
#X connect 92 0 91 1;
#X connect 93 0 92 0;
#X connect 95 0 85 0;
#X connect 96 0 95 1;
#X connect 97 0 96 0;
#X connect 98 0 91 0;
#X connect 98 1 89 0;
#X connect 98 2 89 1;
#X connect 99 0 100 0;
#X connect 99 1 100 1;
#X connect 99 2 100 2;
#X connect 99 3 100 3;
#X connect 99 4 100 4;
#X connect 99 5 100 5;
#X connect 99 6 100 6;
#X connect 99 7 100 7;
#X connect 101 0 72 0;
#X connect 102 0 103 0;
#X connect 104 0 105 0;
#X connect 104 0 117 1;
#X connect 104 0 131 2;
#X connect 106 0 109 0;
#X connect 109 0 131 1;
#X connect 110 0 113 0;
#X connect 111 0 120 0;
#X connect 112 0 114 0;
#X connect 113 0 175 0;
#X connect 114 0 175 0;
#X connect 115 0 116 0;
#X connect 116 0 130 0;
#X connect 117 0 118 0;
#X connect 117 1 119 0;
#X connect 120 0 130 0;
#X connect 120 1 170 0;
#X connect 121 0 134 0;
#X connect 123 0 127 0;
#X connect 123 0 131 0;
#X connect 124 0 123 1;
#X connect 125 0 124 0;
#X connect 127 0 117 0;
#X connect 128 0 127 1;
#X connect 129 0 128 0;
#X connect 130 0 123 0;
#X connect 130 1 121 0;
#X connect 130 2 121 1;
#X connect 131 0 132 0;
#X connect 131 1 132 1;
#X connect 131 2 132 2;
#X connect 131 3 132 3;
#X connect 131 4 132 4;
#X connect 131 5 132 5;
#X connect 131 6 132 6;
#X connect 131 7 132 7;
#X connect 133 0 104 0;
#X connect 134 0 135 0;
#X connect 136 0 98 2;
#X connect 137 0 138 0;
#X connect 137 0 150 1;
#X connect 137 0 164 2;
#X connect 139 0 142 0;
#X connect 142 0 164 1;
#X connect 143 0 146 0;
#X connect 144 0 153 0;
#X connect 145 0 147 0;
#X connect 146 0 176 0;
#X connect 147 0 176 0;
#X connect 148 0 149 0;
#X connect 149 0 163 0;
#X connect 150 0 151 0;
#X connect 150 1 152 0;
#X connect 153 0 163 0;
#X connect 153 1 169 0;
#X connect 154 0 167 0;
#X connect 156 0 160 0;
#X connect 156 0 164 0;
#X connect 157 0 156 1;
#X connect 158 0 157 0;
#X connect 160 0 150 0;
#X connect 161 0 160 1;
#X connect 162 0 161 0;
#X connect 163 0 156 0;
#X connect 163 1 154 0;
#X connect 163 2 154 1;
#X connect 164 0 165 0;
#X connect 164 1 165 1;
#X connect 164 2 165 2;
#X connect 164 3 165 3;
#X connect 164 4 165 4;
#X connect 164 5 165 5;
#X connect 164 6 165 6;
#X connect 164 7 165 7;
#X connect 166 0 137 0;
#X connect 167 0 168 0;
#X connect 169 0 163 2;
#X connect 170 0 130 2;
#X connect 171 0 34 0;
#X connect 172 0 69 0;
#X connect 173 0 68 0;
#X connect 174 0 101 0;
#X connect 175 0 133 0;
#X connect 176 0 166 0;
#X connect 177 0 178 0;
#X connect 177 0 190 1;
#X connect 177 0 204 2;
#X connect 179 0 182 0;
#X connect 182 0 204 1;
#X connect 183 0 186 0;
#X connect 184 0 193 0;
#X connect 185 0 187 0;
#X connect 186 0 209 0;
#X connect 187 0 209 0;
#X connect 188 0 189 0;
#X connect 189 0 203 0;
#X connect 190 0 191 0;
#X connect 190 1 192 0;
#X connect 193 0 203 0;
#X connect 193 1 210 0;
#X connect 194 0 207 0;
#X connect 196 0 200 0;
#X connect 196 0 204 0;
#X connect 197 0 196 1;
#X connect 198 0 197 0;
#X connect 200 0 190 0;
#X connect 201 0 200 1;
#X connect 202 0 201 0;
#X connect 203 0 196 0;
#X connect 203 1 194 0;
#X connect 203 2 194 1;
#X connect 204 0 205 0;
#X connect 204 1 205 1;
#X connect 204 2 205 2;
#X connect 204 3 205 3;
#X connect 204 4 205 4;
#X connect 204 5 205 5;
#X connect 204 6 205 6;
#X connect 204 7 205 7;
#X connect 206 0 177 0;
#X connect 207 0 208 0;
#X connect 209 0 206 0;
#X connect 210 0 203 2;
#X connect 211 0 212 0;
#X connect 211 0 224 1;
#X connect 211 0 238 2;
#X connect 213 0 216 0;
#X connect 216 0 238 1;
#X connect 217 0 220 0;
#X connect 218 0 227 0;
#X connect 219 0 221 0;
#X connect 220 0 275 0;
#X connect 221 0 275 0;
#X connect 222 0 223 0;
#X connect 223 0 237 0;
#X connect 224 0 225 0;
#X connect 224 1 226 0;
#X connect 227 0 237 0;
#X connect 227 1 310 0;
#X connect 228 0 241 0;
#X connect 230 0 234 0;
#X connect 230 0 238 0;
#X connect 231 0 230 1;
#X connect 232 0 231 0;
#X connect 234 0 224 0;
#X connect 235 0 234 1;
#X connect 236 0 235 0;
#X connect 237 0 230 0;
#X connect 237 1 228 0;
#X connect 237 2 228 1;
#X connect 238 0 239 0;
#X connect 238 1 239 1;
#X connect 238 2 239 2;
#X connect 238 3 239 3;
#X connect 238 4 239 4;
#X connect 238 5 239 5;
#X connect 238 6 239 6;
#X connect 238 7 239 7;
#X connect 240 0 211 0;
#X connect 241 0 242 0;
#X connect 243 0 244 0;
#X connect 243 0 256 1;
#X connect 243 0 270 2;
#X connect 245 0 248 0;
#X connect 248 0 270 1;
#X connect 249 0 252 0;
#X connect 250 0 259 0;
#X connect 251 0 253 0;
#X connect 252 0 276 0;
#X connect 253 0 276 0;
#X connect 254 0 255 0;
#X connect 255 0 269 0;
#X connect 256 0 257 0;
#X connect 256 1 258 0;
#X connect 259 0 269 0;
#X connect 259 1 311 0;
#X connect 260 0 273 0;
#X connect 262 0 266 0;
#X connect 262 0 270 0;
#X connect 263 0 262 1;
#X connect 264 0 263 0;
#X connect 266 0 256 0;
#X connect 267 0 266 1;
#X connect 268 0 267 0;
#X connect 269 0 262 0;
#X connect 269 1 260 0;
#X connect 269 2 260 1;
#X connect 270 0 271 0;
#X connect 270 1 271 1;
#X connect 270 2 271 2;
#X connect 270 3 271 3;
#X connect 270 4 271 4;
#X connect 270 5 271 5;
#X connect 270 6 271 6;
#X connect 270 7 271 7;
#X connect 272 0 243 0;
#X connect 273 0 274 0;
#X connect 275 0 240 0;
#X connect 276 0 272 0;
#X connect 277 0 278 0;
#X connect 277 0 290 1;
#X connect 277 0 304 2;
#X connect 279 0 282 0;
#X connect 282 0 304 1;
#X connect 283 0 286 0;
#X connect 284 0 293 0;
#X connect 285 0 287 0;
#X connect 286 0 309 0;
#X connect 287 0 309 0;
#X connect 288 0 289 0;
#X connect 289 0 303 0;
#X connect 290 0 291 0;
#X connect 290 1 292 0;
#X connect 293 0 303 0;
#X connect 293 1 312 0;
#X connect 294 0 307 0;
#X connect 296 0 300 0;
#X connect 296 0 304 0;
#X connect 297 0 296 1;
#X connect 298 0 297 0;
#X connect 300 0 290 0;
#X connect 301 0 300 1;
#X connect 302 0 301 0;
#X connect 303 0 296 0;
#X connect 303 1 294 0;
#X connect 303 2 294 1;
#X connect 304 0 305 0;
#X connect 304 1 305 1;
#X connect 304 2 305 2;
#X connect 304 3 305 3;
#X connect 304 4 305 4;
#X connect 304 5 305 5;
#X connect 304 6 305 6;
#X connect 304 7 305 7;
#X connect 306 0 277 0;
#X connect 307 0 308 0;
#X connect 309 0 306 0;
#X connect 310 0 237 2;
#X connect 311 0 269 2;
#X connect 312 0 303 2;
#X connect 313 0 317 0;
#X connect 314 0 315 0;
#X connect 315 0 327 0;
#X connect 317 0 327 0;
#X connect 317 1 349 0;
#X connect 318 0 329 0;
#X connect 320 0 324 0;
#X connect 320 0 328 0;
#X connect 320 0 328 1;
#X connect 320 0 328 2;
#X connect 321 0 320 1;
#X connect 322 0 321 0;
#X connect 324 0 316 0;
#X connect 325 0 324 1;
#X connect 326 0 325 0;
#X connect 327 0 320 0;
#X connect 327 1 318 0;
#X connect 327 2 318 1;
#X connect 329 0 330 0;
#X connect 331 0 335 0;
#X connect 332 0 333 0;
#X connect 333 0 345 0;
#X connect 335 0 345 0;
#X connect 335 1 350 0;
#X connect 336 0 347 0;
#X connect 338 0 342 0;
#X connect 338 0 346 5;
#X connect 338 0 346 6;
#X connect 338 0 346 7;
#X connect 339 0 338 1;
#X connect 340 0 339 0;
#X connect 342 0 334 0;
#X connect 343 0 342 1;
#X connect 344 0 343 0;
#X connect 345 0 338 0;
#X connect 345 1 336 0;
#X connect 345 2 336 1;
#X connect 347 0 348 0;
#X connect 349 0 327 2;
#X connect 350 0 345 2;
#X connect 351 0 33 0;
