#N canvas 53 146 1170 797 10;
#X obj 135 207 r \$0-start;
#X obj 204 206 r \$0-stop;
#X msg 204 230 stop;
#X obj 135 230 t b b;
#X obj 228 286 timer;
#X text 281 294 file length;
#X obj 135 282 volume~;
#X msg 243 254 1;
#X obj 243 231 loadbang;
#X text 272 256 init vol;
#X obj 135 256 elooper~;
#X msg 228 311 set \$1;
#X msg 278 312 37701.9;
#X obj 82 558 throw~ devL;
#X obj 82 510 *~;
#X obj 73 462 tgl 15 0 empty empty empty 17 7 0 10 -262144 -1 -1 1
1;
#X obj 22 413 r \$0-headphones;
#X obj 160 558 throw~ devR;
#X obj 149 487 throw~ c33;
#X msg 183 177 ceo_bass_33_34_35_36;
#X obj 218 486 throw~ c34;
#X obj 164 507 throw~ c35;
#X obj 233 506 throw~ c36;
#X obj 488 50 s \$0-headphones;
#X obj 488 25 tgl 15 0 empty empty empty 17 7 0 10 -262144 -1 -1 1
1;
#X obj 505 177 r \$0-start;
#X obj 574 176 r \$0-stop;
#X msg 574 200 stop;
#X obj 505 200 t b b;
#X obj 598 256 timer;
#X text 651 264 file length;
#X obj 505 252 volume~;
#X msg 613 224 1;
#X obj 613 201 loadbang;
#X text 642 226 init vol;
#X obj 505 226 elooper~;
#X msg 598 281 set \$1;
#X msg 648 282 37701.9;
#X obj 452 528 throw~ devL;
#X obj 452 480 *~;
#X obj 443 432 tgl 15 0 empty empty empty 17 7 0 10 -262144 -1 -1 1
1;
#X obj 392 383 r \$0-headphones;
#X obj 530 528 throw~ devR;
#X obj 519 457 throw~ c33;
#X obj 588 456 throw~ c34;
#X obj 111 -18 inlet;
#X obj 112 58 s \$0-start;
#X obj 182 58 s \$0-stop;
#X msg 553 147 ceo_strings_33_34;
#X obj 862 170 r \$0-start;
#X obj 931 169 r \$0-stop;
#X msg 931 193 stop;
#X obj 862 193 t b b;
#X obj 955 249 timer;
#X text 1008 257 file length;
#X obj 862 245 volume~;
#X msg 970 217 1;
#X obj 970 194 loadbang;
#X text 999 219 init vol;
#X obj 862 219 elooper~;
#X msg 955 274 set \$1;
#X msg 1005 275 37701.9;
#X obj 809 521 throw~ devL;
#X obj 809 473 *~;
#X obj 800 425 tgl 15 0 empty empty empty 17 7 0 10 -262144 -1 -1 1
1;
#X obj 749 376 r \$0-headphones;
#X obj 887 521 throw~ devR;
#X msg 910 140 ceo_strings_35_36;
#X obj 876 450 throw~ c35;
#X obj 945 449 throw~ c36;
#X obj 158 -17 bng 15 250 50 0 empty empty empty 17 7 0 10 -262144
-1 -1;
#X obj 111 6 t b b;
#X connect 0 0 3 0;
#X connect 1 0 2 0;
#X connect 2 0 10 0;
#X connect 3 0 10 0;
#X connect 3 1 19 0;
#X connect 4 0 11 0;
#X connect 6 0 14 0;
#X connect 6 0 18 0;
#X connect 6 0 20 0;
#X connect 6 0 21 0;
#X connect 6 0 22 0;
#X connect 7 0 6 1;
#X connect 8 0 7 0;
#X connect 10 0 6 0;
#X connect 10 1 4 0;
#X connect 10 2 4 1;
#X connect 11 0 12 0;
#X connect 14 0 13 0;
#X connect 14 0 17 0;
#X connect 15 0 14 1;
#X connect 16 0 15 0;
#X connect 19 0 10 2;
#X connect 24 0 23 0;
#X connect 25 0 28 0;
#X connect 26 0 27 0;
#X connect 27 0 35 0;
#X connect 28 0 35 0;
#X connect 28 1 48 0;
#X connect 29 0 36 0;
#X connect 31 0 39 0;
#X connect 31 0 43 0;
#X connect 31 0 44 0;
#X connect 32 0 31 1;
#X connect 33 0 32 0;
#X connect 35 0 31 0;
#X connect 35 1 29 0;
#X connect 35 2 29 1;
#X connect 36 0 37 0;
#X connect 39 0 38 0;
#X connect 39 0 42 0;
#X connect 40 0 39 1;
#X connect 41 0 40 0;
#X connect 45 0 71 0;
#X connect 48 0 35 2;
#X connect 49 0 52 0;
#X connect 50 0 51 0;
#X connect 51 0 59 0;
#X connect 52 0 59 0;
#X connect 52 1 67 0;
#X connect 53 0 60 0;
#X connect 55 0 63 0;
#X connect 55 0 68 0;
#X connect 55 0 69 0;
#X connect 56 0 55 1;
#X connect 57 0 56 0;
#X connect 59 0 55 0;
#X connect 59 1 53 0;
#X connect 59 2 53 1;
#X connect 60 0 61 0;
#X connect 63 0 62 0;
#X connect 63 0 66 0;
#X connect 64 0 63 1;
#X connect 65 0 64 0;
#X connect 67 0 59 2;
#X connect 70 0 71 0;
#X connect 71 0 47 0;
#X connect 71 1 46 0;
