#N canvas 64 87 1596 903 10;
#X obj 228 1236 linear_panner_12ch~, f 27;
#X obj 228 932 volume~;
#X obj 335 1179 auto_pan;
#X floatatom 310 1212 5 0 0 0 - - -, f 5;
#X obj 258 1182 loadbang;
#X text 295 1111 pan time;
#X text 254 1160 pan width;
#X obj 228 1274 cor_pendant_thrower, f 27;
#X msg 258 1208 0;
#X obj 193 43 s \$0-start;
#X obj 193 23 bng 15 250 50 0 empty empty empty 17 7 0 10 -262144 -1
-1;
#X obj 228 857 r \$0-start;
#X obj 263 23 bng 15 250 50 0 empty empty empty 17 7 0 10 -262144 -1
-1;
#X obj 263 43 s \$0-stop;
#X obj 297 856 r \$0-stop;
#X msg 297 880 stop;
#X msg 276 827 corridor_reversecymbals1_pendants;
#X obj 215 1311 panner~;
#X obj 215 1349 throw~ devL;
#X obj 292 1349 throw~ devR;
#X obj 228 880 t b b;
#X obj 321 936 timer;
#X text 380 961 file length;
#X obj 321 962 nbx 5 14 -1e+37 1e+37 0 0 empty empty empty 0 -8 0 10
-262144 -1 -1 29190.7 256;
#X obj 562 1237 linear_panner_12ch~, f 27;
#X obj 669 1180 auto_pan;
#X floatatom 644 1213 5 0 0 0 - - -, f 5;
#X obj 592 1183 loadbang;
#X text 630 1120 pan time;
#X text 588 1161 pan width;
#X obj 562 1275 cor_pendant_thrower, f 27;
#X msg 592 1209 0;
#X obj 562 858 r \$0-start;
#X obj 631 857 r \$0-stop;
#X msg 631 881 stop;
#X obj 549 1312 panner~;
#X obj 549 1350 throw~ devL;
#X obj 626 1350 throw~ devR;
#X obj 562 881 t b b;
#X obj 655 937 timer;
#X text 714 962 file length;
#X obj 655 963 nbx 5 14 -1e+37 1e+37 0 0 empty empty empty 0 -8 0 10
-262144 -1 -1 29190.7 256;
#X msg 610 828 corridor_reversecymbals2_pendants;
#X obj 877 546 linear_panner_12ch~, f 27;
#X obj 984 489 auto_pan;
#X floatatom 959 522 5 0 0 0 - - -, f 5;
#X obj 907 492 loadbang;
#X text 975 433 pan time;
#X text 903 470 pan width;
#X obj 877 584 cor_pendant_thrower, f 27;
#X msg 907 518 0;
#X obj 877 167 r \$0-start;
#X obj 946 166 r \$0-stop;
#X msg 946 190 stop;
#X obj 864 621 panner~;
#X obj 864 659 throw~ devL;
#X obj 941 659 throw~ devR;
#X obj 877 190 t b b;
#X obj 970 246 timer;
#X text 1029 271 file length;
#X obj 970 272 nbx 5 14 -1e+37 1e+37 0 0 empty empty empty 0 -8 0 10
-262144 -1 -1 29190.7 256;
#X obj 1211 547 linear_panner_12ch~, f 27;
#X obj 1318 490 auto_pan;
#X floatatom 1293 523 5 0 0 0 - - -, f 5;
#X obj 1241 493 loadbang;
#X text 1278 422 pan time;
#X text 1237 471 pan width;
#X obj 1211 585 cor_pendant_thrower, f 27;
#X msg 1241 519 0;
#X obj 1304 369 metro 3000;
#X obj 1304 396 bng 15 250 50 0 empty empty empty 17 7 0 10 -262144
-1 -1;
#X obj 1304 297 r \$0-start;
#X obj 1211 168 r \$0-start;
#X obj 1334 318 r \$0-stop;
#X msg 1304 346 1;
#X msg 1334 346 0;
#X obj 1280 167 r \$0-stop;
#X msg 1280 191 stop;
#X obj 1198 622 panner~;
#X obj 1198 660 throw~ devL;
#X obj 1275 660 throw~ devR;
#X obj 1211 191 t b b;
#X obj 1304 247 timer;
#X text 1363 272 file length;
#X obj 1304 273 nbx 5 14 -1e+37 1e+37 0 0 empty empty empty 0 -8 0
10 -262144 -1 -1 29190.7 256;
#X obj 562 933 volume~;
#X obj 877 242 volume~;
#X obj 1211 243 volume~;
#X msg 346 907 1;
#X obj 346 884 loadbang;
#X text 375 909 init vol;
#X msg 667 904 1;
#X obj 667 881 loadbang;
#X text 696 906 init vol;
#X msg 987 212 1;
#X obj 987 189 loadbang;
#X text 1016 214 init vol;
#X msg 1319 215 1;
#X obj 1319 192 loadbang;
#X text 1348 217 init vol;
#X msg 1259 138 corridor_hichords2_pendants;
#X msg 925 137 corridor_hichords1_pendants;
#X obj 1495 545 linear_panner_12ch~, f 27;
#X obj 1602 488 auto_pan;
#X floatatom 1577 521 5 0 0 0 - - -, f 5;
#X obj 1525 491 loadbang;
#X text 1562 420 pan time;
#X text 1521 469 pan width;
#X obj 1495 583 cor_pendant_thrower, f 27;
#X msg 1525 517 0;
#X obj 1588 367 metro 3000;
#X obj 1588 394 bng 15 250 50 0 empty empty empty 17 7 0 10 -262144
-1 -1;
#X obj 1588 295 r \$0-start;
#X obj 1495 166 r \$0-start;
#X obj 1618 316 r \$0-stop;
#X msg 1588 344 1;
#X msg 1618 344 0;
#X obj 1564 165 r \$0-stop;
#X msg 1564 189 stop;
#X obj 1482 620 panner~;
#X obj 1482 658 throw~ devL;
#X obj 1559 658 throw~ devR;
#X obj 1495 189 t b b;
#X obj 1588 245 timer;
#X text 1647 270 file length;
#X obj 1588 271 nbx 5 14 -1e+37 1e+37 0 0 empty empty empty 0 -8 0
10 -262144 -1 -1 29190.7 256;
#X obj 1495 241 volume~;
#X msg 1603 213 1;
#X obj 1603 190 loadbang;
#X text 1632 215 init vol;
#X msg 1543 136 corridor_hichords3_pendants;
#X obj 877 216 elooper~;
#X msg 966 451 0 \, 1 15000 \, 0 15000 15000;
#X msg 621 1138 0 \, 1 15000 \, 0 15000 15000;
#X msg 286 1129 0 \, 1 15000 \, 0 15000 15000;
#X msg 1269 440 0 \, 1 15000 \, 0 15000 15000;
#X msg 1553 438 0 \, 1 15000 \, 0 15000 15000;
#X obj 528 1283 *~;
#X obj 492 1238 tgl 15 0 empty empty empty 17 7 0 10 -262144 -1 -1
1 1;
#X obj 492 1210 r \$0-headphones;
#X obj 571 34 s \$0-headphones;
#X obj 573 9 tgl 15 0 empty empty empty 17 7 0 10 -262144 -1 -1 1 1
;
#X obj 197 1279 *~;
#X obj 161 1234 tgl 15 0 empty empty empty 17 7 0 10 -262144 -1 -1
1 1;
#X obj 161 1206 r \$0-headphones;
#X obj 844 590 *~;
#X obj 808 545 tgl 15 0 empty empty empty 17 7 0 10 -262144 -1 -1 1
1;
#X obj 808 517 r \$0-headphones;
#X obj 1174 588 *~;
#X obj 1138 543 tgl 15 0 empty empty empty 17 7 0 10 -262144 -1 -1
1 1;
#X obj 1138 515 r \$0-headphones;
#X obj 1458 589 *~;
#X obj 1422 544 tgl 15 0 empty empty empty 17 7 0 10 -262144 -1 -1
1 1;
#X obj 1422 516 r \$0-headphones;
#X obj 562 907 elooper~;
#X obj 228 905 elooper~;
#X obj 1211 217 elooper~;
#X obj 1495 215 elooper~;
#X obj 569 542 linear_panner_12ch~, f 27;
#X obj 676 485 auto_pan;
#X floatatom 651 518 5 0 0 0 - - -, f 5;
#X obj 599 488 loadbang;
#X text 636 417 pan time;
#X text 595 466 pan width;
#X obj 569 580 cor_pendant_thrower, f 27;
#X msg 599 514 0;
#X obj 662 364 metro 3000;
#X obj 662 391 bng 15 250 50 0 empty empty empty 17 7 0 10 -262144
-1 -1;
#X obj 662 292 r \$0-start;
#X obj 569 163 r \$0-start;
#X obj 692 313 r \$0-stop;
#X msg 662 341 1;
#X msg 692 341 0;
#X obj 638 162 r \$0-stop;
#X msg 638 186 stop;
#X obj 556 617 panner~;
#X obj 556 655 throw~ devL;
#X obj 633 655 throw~ devR;
#X obj 569 186 t b b;
#X obj 662 242 timer;
#X text 721 267 file length;
#X obj 662 268 nbx 5 14 -1e+37 1e+37 0 0 empty empty empty 0 -8 0 10
-262144 -1 -1 29190.7 256;
#X obj 569 238 volume~;
#X msg 677 210 1;
#X obj 677 187 loadbang;
#X text 706 212 init vol;
#X msg 627 435 0 \, 1 15000 \, 0 15000 15000;
#X obj 532 583 *~;
#X obj 496 538 tgl 15 0 empty empty empty 17 7 0 10 -262144 -1 -1 1
1;
#X obj 496 510 r \$0-headphones;
#X obj 569 212 elooper~;
#X msg 617 133 corridor_tapeloop_pendants;
#X obj 894 1234 linear_panner_12ch~, f 27;
#X obj 1001 1177 auto_pan;
#X floatatom 976 1210 5 0 0 0 - - -, f 5;
#X obj 924 1180 loadbang;
#X text 992 1121 pan time;
#X text 920 1158 pan width;
#X obj 894 1272 cor_pendant_thrower, f 27;
#X msg 924 1206 0;
#X obj 894 855 r \$0-start;
#X obj 963 854 r \$0-stop;
#X msg 963 878 stop;
#X obj 881 1309 panner~;
#X obj 881 1347 throw~ devL;
#X obj 958 1347 throw~ devR;
#X obj 894 878 t b b;
#X obj 987 934 timer;
#X text 1046 959 file length;
#X obj 987 960 nbx 5 14 -1e+37 1e+37 0 0 empty empty empty 0 -8 0 10
-262144 -1 -1 29190.7 256;
#X obj 1228 1235 linear_panner_12ch~, f 27;
#X obj 1335 1178 auto_pan;
#X floatatom 1310 1211 5 0 0 0 - - -, f 5;
#X obj 1258 1181 loadbang;
#X text 1295 1110 pan time;
#X text 1254 1159 pan width;
#X obj 1228 1273 cor_pendant_thrower, f 27;
#X msg 1258 1207 0;
#X obj 1228 856 r \$0-start;
#X obj 1297 855 r \$0-stop;
#X msg 1297 879 stop;
#X obj 1215 1310 panner~;
#X obj 1215 1348 throw~ devL;
#X obj 1292 1348 throw~ devR;
#X obj 1228 879 t b b;
#X obj 1321 935 timer;
#X text 1380 960 file length;
#X obj 1321 961 nbx 5 14 -1e+37 1e+37 0 0 empty empty empty 0 -8 0
10 -262144 -1 -1 29190.7 256;
#X obj 894 930 volume~;
#X obj 1228 931 volume~;
#X msg 1004 900 1;
#X obj 1004 877 loadbang;
#X text 1033 902 init vol;
#X msg 1336 903 1;
#X obj 1336 880 loadbang;
#X text 1365 905 init vol;
#X obj 1512 1233 linear_panner_12ch~, f 27;
#X obj 1619 1176 auto_pan;
#X floatatom 1594 1209 5 0 0 0 - - -, f 5;
#X obj 1542 1179 loadbang;
#X text 1579 1108 pan time;
#X text 1538 1157 pan width;
#X obj 1512 1271 cor_pendant_thrower, f 27;
#X msg 1542 1205 0;
#X obj 1512 854 r \$0-start;
#X obj 1581 853 r \$0-stop;
#X msg 1581 877 stop;
#X obj 1499 1308 panner~;
#X obj 1499 1346 throw~ devL;
#X obj 1576 1346 throw~ devR;
#X obj 1512 877 t b b;
#X obj 1605 933 timer;
#X text 1664 958 file length;
#X obj 1605 959 nbx 5 14 -1e+37 1e+37 0 0 empty empty empty 0 -8 0
10 -262144 -1 -1 29190.7 256;
#X obj 1512 929 volume~;
#X msg 1620 901 1;
#X obj 1620 878 loadbang;
#X text 1649 903 init vol;
#X obj 894 904 elooper~;
#X msg 983 1139 0 \, 1 15000 \, 0 15000 15000;
#X msg 1286 1128 0 \, 1 15000 \, 0 15000 15000;
#X msg 1570 1126 0 \, 1 15000 \, 0 15000 15000;
#X obj 861 1278 *~;
#X obj 825 1205 r \$0-headphones;
#X obj 1191 1276 *~;
#X obj 1155 1231 tgl 15 0 empty empty empty 17 7 0 10 -262144 -1 -1
1 1;
#X obj 1155 1203 r \$0-headphones;
#X obj 1475 1277 *~;
#X obj 1439 1232 tgl 15 0 empty empty empty 17 7 0 10 -262144 -1 -1
1 1;
#X obj 1439 1204 r \$0-headphones;
#X obj 1228 905 elooper~;
#X obj 1512 903 elooper~;
#X obj 825 1235 tgl 15 0 empty empty empty 17 7 0 10 -262144 -1 -1
1 1;
#X msg 942 825 corridor_chords1_pendants;
#X msg 1276 826 corridor_chords2_pendants;
#X msg 1560 824 corridor_chords3_pendants;
#X obj 195 -25 r corridor;
#X obj 195 0 sel 0 1;
#X obj 571 -13 inlet;
#X connect 0 0 7 0;
#X connect 0 1 7 1;
#X connect 0 2 7 2;
#X connect 0 3 7 3;
#X connect 0 4 7 4;
#X connect 0 5 7 5;
#X connect 0 6 7 6;
#X connect 0 7 7 7;
#X connect 0 8 7 8;
#X connect 0 9 7 9;
#X connect 0 10 7 10;
#X connect 0 11 7 11;
#X connect 1 0 0 0;
#X connect 1 0 142 0;
#X connect 2 0 3 0;
#X connect 2 0 0 2;
#X connect 2 0 17 1;
#X connect 4 0 8 0;
#X connect 8 0 0 1;
#X connect 10 0 9 0;
#X connect 11 0 20 0;
#X connect 12 0 13 0;
#X connect 14 0 15 0;
#X connect 15 0 155 0;
#X connect 16 0 155 2;
#X connect 17 0 18 0;
#X connect 17 1 19 0;
#X connect 20 0 155 0;
#X connect 20 1 16 0;
#X connect 21 0 23 0;
#X connect 24 0 30 0;
#X connect 24 1 30 1;
#X connect 24 2 30 2;
#X connect 24 3 30 3;
#X connect 24 4 30 4;
#X connect 24 5 30 5;
#X connect 24 6 30 6;
#X connect 24 7 30 7;
#X connect 24 8 30 8;
#X connect 24 9 30 9;
#X connect 24 10 30 10;
#X connect 24 11 30 11;
#X connect 25 0 26 0;
#X connect 25 0 24 2;
#X connect 25 0 35 1;
#X connect 27 0 31 0;
#X connect 31 0 24 1;
#X connect 32 0 38 0;
#X connect 33 0 34 0;
#X connect 34 0 154 0;
#X connect 35 0 36 0;
#X connect 35 1 37 0;
#X connect 38 0 154 0;
#X connect 38 1 42 0;
#X connect 39 0 41 0;
#X connect 42 0 154 2;
#X connect 43 0 49 0;
#X connect 43 1 49 1;
#X connect 43 2 49 2;
#X connect 43 3 49 3;
#X connect 43 4 49 4;
#X connect 43 5 49 5;
#X connect 43 6 49 6;
#X connect 43 7 49 7;
#X connect 43 8 49 8;
#X connect 43 9 49 9;
#X connect 43 10 49 10;
#X connect 43 11 49 11;
#X connect 44 0 45 0;
#X connect 44 0 43 2;
#X connect 44 0 54 1;
#X connect 46 0 50 0;
#X connect 50 0 43 1;
#X connect 51 0 57 0;
#X connect 52 0 53 0;
#X connect 53 0 131 0;
#X connect 54 0 55 0;
#X connect 54 1 56 0;
#X connect 57 0 131 0;
#X connect 57 1 101 0;
#X connect 58 0 60 0;
#X connect 61 0 67 0;
#X connect 61 1 67 1;
#X connect 61 2 67 2;
#X connect 61 3 67 3;
#X connect 61 4 67 4;
#X connect 61 5 67 5;
#X connect 61 6 67 6;
#X connect 61 7 67 7;
#X connect 61 8 67 8;
#X connect 61 9 67 9;
#X connect 61 10 67 10;
#X connect 61 11 67 11;
#X connect 62 0 63 0;
#X connect 62 0 61 2;
#X connect 62 0 78 1;
#X connect 64 0 68 0;
#X connect 68 0 61 1;
#X connect 69 0 70 0;
#X connect 71 0 74 0;
#X connect 72 0 81 0;
#X connect 73 0 75 0;
#X connect 74 0 69 0;
#X connect 75 0 69 0;
#X connect 76 0 77 0;
#X connect 77 0 156 0;
#X connect 78 0 79 0;
#X connect 78 1 80 0;
#X connect 81 0 156 0;
#X connect 81 1 100 0;
#X connect 82 0 84 0;
#X connect 85 0 24 0;
#X connect 85 0 137 0;
#X connect 86 0 43 0;
#X connect 86 0 145 0;
#X connect 87 0 61 0;
#X connect 87 0 148 0;
#X connect 88 0 1 1;
#X connect 89 0 88 0;
#X connect 91 0 85 1;
#X connect 92 0 91 0;
#X connect 94 0 86 1;
#X connect 95 0 94 0;
#X connect 97 0 87 1;
#X connect 98 0 97 0;
#X connect 100 0 156 2;
#X connect 101 0 131 2;
#X connect 102 0 108 0;
#X connect 102 1 108 1;
#X connect 102 2 108 2;
#X connect 102 3 108 3;
#X connect 102 4 108 4;
#X connect 102 5 108 5;
#X connect 102 6 108 6;
#X connect 102 7 108 7;
#X connect 102 8 108 8;
#X connect 102 9 108 9;
#X connect 102 10 108 10;
#X connect 102 11 108 11;
#X connect 103 0 104 0;
#X connect 103 0 102 2;
#X connect 103 0 119 1;
#X connect 105 0 109 0;
#X connect 109 0 102 1;
#X connect 110 0 111 0;
#X connect 112 0 115 0;
#X connect 113 0 122 0;
#X connect 114 0 116 0;
#X connect 115 0 110 0;
#X connect 116 0 110 0;
#X connect 117 0 118 0;
#X connect 118 0 157 0;
#X connect 119 0 120 0;
#X connect 119 1 121 0;
#X connect 122 0 157 0;
#X connect 122 1 130 0;
#X connect 123 0 125 0;
#X connect 126 0 102 0;
#X connect 126 0 151 0;
#X connect 127 0 126 1;
#X connect 128 0 127 0;
#X connect 130 0 157 2;
#X connect 131 0 86 0;
#X connect 131 1 132 0;
#X connect 131 1 58 0;
#X connect 131 2 132 0;
#X connect 131 2 58 1;
#X connect 132 0 44 0;
#X connect 133 0 25 0;
#X connect 134 0 2 0;
#X connect 135 0 62 0;
#X connect 136 0 103 0;
#X connect 137 0 35 0;
#X connect 138 0 137 1;
#X connect 139 0 138 0;
#X connect 141 0 140 0;
#X connect 142 0 17 0;
#X connect 143 0 142 1;
#X connect 144 0 143 0;
#X connect 145 0 54 0;
#X connect 146 0 145 1;
#X connect 147 0 146 0;
#X connect 148 0 78 0;
#X connect 149 0 148 1;
#X connect 150 0 149 0;
#X connect 151 0 119 0;
#X connect 152 0 151 1;
#X connect 153 0 152 0;
#X connect 154 0 85 0;
#X connect 154 1 39 0;
#X connect 154 1 133 0;
#X connect 154 2 39 1;
#X connect 154 2 133 0;
#X connect 155 0 1 0;
#X connect 155 1 134 0;
#X connect 155 1 21 0;
#X connect 155 2 134 0;
#X connect 155 2 21 1;
#X connect 156 0 87 0;
#X connect 156 1 135 0;
#X connect 156 1 82 0;
#X connect 156 2 135 0;
#X connect 156 2 82 1;
#X connect 157 0 126 0;
#X connect 157 1 136 0;
#X connect 157 1 123 0;
#X connect 157 2 136 0;
#X connect 157 2 123 1;
#X connect 158 0 164 0;
#X connect 158 1 164 1;
#X connect 158 2 164 2;
#X connect 158 3 164 3;
#X connect 158 4 164 4;
#X connect 158 5 164 5;
#X connect 158 6 164 6;
#X connect 158 7 164 7;
#X connect 158 8 164 8;
#X connect 158 9 164 9;
#X connect 158 10 164 10;
#X connect 158 11 164 11;
#X connect 159 0 160 0;
#X connect 159 0 158 2;
#X connect 159 0 175 1;
#X connect 161 0 165 0;
#X connect 165 0 158 1;
#X connect 166 0 167 0;
#X connect 168 0 171 0;
#X connect 169 0 178 0;
#X connect 170 0 172 0;
#X connect 171 0 166 0;
#X connect 172 0 166 0;
#X connect 173 0 174 0;
#X connect 174 0 190 0;
#X connect 175 0 176 0;
#X connect 175 1 177 0;
#X connect 178 0 190 0;
#X connect 178 1 191 0;
#X connect 179 0 181 0;
#X connect 182 0 158 0;
#X connect 182 0 187 0;
#X connect 183 0 182 1;
#X connect 184 0 183 0;
#X connect 186 0 159 0;
#X connect 187 0 175 0;
#X connect 188 0 187 1;
#X connect 189 0 188 0;
#X connect 190 0 182 0;
#X connect 190 1 186 0;
#X connect 190 1 179 0;
#X connect 190 2 186 0;
#X connect 190 2 179 1;
#X connect 191 0 190 2;
#X connect 192 0 198 0;
#X connect 192 1 198 1;
#X connect 192 2 198 2;
#X connect 192 3 198 3;
#X connect 192 4 198 4;
#X connect 192 5 198 5;
#X connect 192 6 198 6;
#X connect 192 7 198 7;
#X connect 192 8 198 8;
#X connect 192 9 198 9;
#X connect 192 10 198 10;
#X connect 192 11 198 11;
#X connect 193 0 194 0;
#X connect 193 0 192 2;
#X connect 193 0 203 1;
#X connect 195 0 199 0;
#X connect 199 0 192 1;
#X connect 200 0 206 0;
#X connect 201 0 202 0;
#X connect 202 0 258 0;
#X connect 203 0 204 0;
#X connect 203 1 205 0;
#X connect 206 0 258 0;
#X connect 206 1 273 0;
#X connect 207 0 209 0;
#X connect 210 0 216 0;
#X connect 210 1 216 1;
#X connect 210 2 216 2;
#X connect 210 3 216 3;
#X connect 210 4 216 4;
#X connect 210 5 216 5;
#X connect 210 6 216 6;
#X connect 210 7 216 7;
#X connect 210 8 216 8;
#X connect 210 9 216 9;
#X connect 210 10 216 10;
#X connect 210 11 216 11;
#X connect 211 0 212 0;
#X connect 211 0 210 2;
#X connect 211 0 221 1;
#X connect 213 0 217 0;
#X connect 217 0 210 1;
#X connect 218 0 224 0;
#X connect 219 0 220 0;
#X connect 220 0 270 0;
#X connect 221 0 222 0;
#X connect 221 1 223 0;
#X connect 224 0 270 0;
#X connect 224 1 274 0;
#X connect 225 0 227 0;
#X connect 228 0 192 0;
#X connect 228 0 262 0;
#X connect 229 0 210 0;
#X connect 229 0 264 0;
#X connect 230 0 228 1;
#X connect 231 0 230 0;
#X connect 233 0 229 1;
#X connect 234 0 233 0;
#X connect 236 0 242 0;
#X connect 236 1 242 1;
#X connect 236 2 242 2;
#X connect 236 3 242 3;
#X connect 236 4 242 4;
#X connect 236 5 242 5;
#X connect 236 6 242 6;
#X connect 236 7 242 7;
#X connect 236 8 242 8;
#X connect 236 9 242 9;
#X connect 236 10 242 10;
#X connect 236 11 242 11;
#X connect 237 0 238 0;
#X connect 237 0 236 2;
#X connect 237 0 247 1;
#X connect 239 0 243 0;
#X connect 243 0 236 1;
#X connect 244 0 250 0;
#X connect 245 0 246 0;
#X connect 246 0 271 0;
#X connect 247 0 248 0;
#X connect 247 1 249 0;
#X connect 250 0 271 0;
#X connect 250 1 275 0;
#X connect 251 0 253 0;
#X connect 254 0 236 0;
#X connect 254 0 267 0;
#X connect 255 0 254 1;
#X connect 256 0 255 0;
#X connect 258 0 228 0;
#X connect 258 1 259 0;
#X connect 258 1 207 0;
#X connect 258 2 259 0;
#X connect 258 2 207 1;
#X connect 259 0 193 0;
#X connect 260 0 211 0;
#X connect 261 0 237 0;
#X connect 262 0 203 0;
#X connect 263 0 272 0;
#X connect 264 0 221 0;
#X connect 265 0 264 1;
#X connect 266 0 265 0;
#X connect 267 0 247 0;
#X connect 268 0 267 1;
#X connect 269 0 268 0;
#X connect 270 0 229 0;
#X connect 270 1 260 0;
#X connect 270 1 225 0;
#X connect 270 2 260 0;
#X connect 270 2 225 1;
#X connect 271 0 254 0;
#X connect 271 1 261 0;
#X connect 271 1 251 0;
#X connect 271 2 261 0;
#X connect 271 2 251 1;
#X connect 272 0 262 1;
#X connect 273 0 258 2;
#X connect 274 0 270 2;
#X connect 275 0 271 2;
#X connect 276 0 277 0;
#X connect 277 0 12 0;
#X connect 277 1 10 0;
#X connect 278 0 141 0;
