#N canvas 92 84 1261 854 10;
#X obj 127 200 elooper~;
#X obj 273 216 elooper~;
#X text 139 140 bass;
#X obj 127 242 volume~;
#X obj 273 546 linear_panner_12ch~, f 27;
#X obj 273 242 volume~;
#X text 636 628 tape loop;
#X obj 128 546 outlet~;
#X text 98 575 goes to 5 6 7 8 9;
#X text 809 146 chords1;
#X text 1026 150 chords2;
#X text 1155 139 med chords3;
#X text 275 144 reverse cymbal1;
#X text 565 140 reverse cymbal1;
#X text 119 628 high chords1;
#X text 247 628 high chords2;
#X text 376 628 high chords3;
#X obj 380 489 auto_pan;
#X msg 331 439 0 \, 1 3000;
#X floatatom 355 522 5 0 0 0 - - -, f 5;
#X obj 303 492 loadbang;
#X text 340 421 pan time;
#X text 299 470 pan width;
#X obj 273 584 cor_pendant_thrower, f 27;
#X text 407 420 pan time;
#X msg 398 438 1 \, 0 3000;
#X msg 303 518 0;
#X obj 592 202 elooper~;
#X obj 568 545 linear_panner_12ch~, f 27;
#X obj 590 241 volume~;
#X obj 675 488 auto_pan;
#X msg 626 438 0 \, 1 3000;
#X floatatom 650 521 5 0 0 0 - - -, f 5;
#X obj 598 491 loadbang;
#X text 635 420 pan time;
#X text 594 469 pan width;
#X obj 568 583 cor_pendant_thrower, f 27;
#X text 702 419 pan time;
#X msg 693 437 1 \, 0 3000;
#X msg 598 517 0;
#X obj 814 206 elooper~;
#X obj 790 549 linear_panner_12ch~, f 27;
#X obj 812 245 volume~;
#X obj 897 492 auto_pan;
#X msg 848 442 0 \, 1 3000;
#X floatatom 872 525 5 0 0 0 - - -, f 5;
#X obj 820 495 loadbang;
#X text 857 424 pan time;
#X text 816 473 pan width;
#X obj 790 587 cor_pendant_thrower, f 27;
#X text 924 423 pan time;
#X msg 915 441 1 \, 0 3000;
#X msg 820 521 0;
#X obj 1031 212 elooper~;
#X obj 1007 555 linear_panner_12ch~, f 27;
#X obj 1029 251 volume~;
#X obj 1114 498 auto_pan;
#X msg 1065 448 0 \, 1 3000;
#X floatatom 1089 531 5 0 0 0 - - -, f 5;
#X obj 1037 501 loadbang;
#X text 1074 430 pan time;
#X text 1033 479 pan width;
#X obj 1007 593 cor_pendant_thrower, f 27;
#X text 1141 429 pan time;
#X msg 1132 447 1 \, 0 3000;
#X msg 1037 527 0;
#X obj 358 368 metro 3000;
#X obj 193 43 s \$0-start;
#X obj 193 23 bng 15 250 50 0 empty empty empty 17 7 0 10 -262144 -1
-1;
#X obj 358 395 bng 15 250 50 0 empty empty empty 17 7 0 10 -262144
-1 -1;
#X obj 358 296 r \$0-start;
#X obj 273 167 r \$0-start;
#X obj 263 23 bng 15 250 50 0 empty empty empty 17 7 0 10 -262144 -1
-1;
#X obj 263 43 s \$0-stop;
#X obj 388 317 r \$0-stop;
#X msg 358 345 1;
#X msg 388 345 0;
#X obj 342 166 r \$0-stop;
#X msg 342 190 stop;
#X connect 0 0 3 0;
#X connect 1 0 5 0;
#X connect 3 0 7 0;
#X connect 4 0 23 0;
#X connect 4 1 23 1;
#X connect 4 2 23 2;
#X connect 4 3 23 3;
#X connect 4 4 23 4;
#X connect 4 5 23 5;
#X connect 4 6 23 6;
#X connect 4 7 23 7;
#X connect 4 8 23 8;
#X connect 4 9 23 9;
#X connect 4 10 23 10;
#X connect 4 11 23 11;
#X connect 5 0 4 0;
#X connect 17 0 19 0;
#X connect 17 0 4 2;
#X connect 18 0 17 0;
#X connect 20 0 26 0;
#X connect 25 0 17 0;
#X connect 26 0 4 1;
#X connect 27 0 29 0;
#X connect 28 0 36 0;
#X connect 28 1 36 1;
#X connect 28 2 36 2;
#X connect 28 3 36 3;
#X connect 28 4 36 4;
#X connect 28 5 36 5;
#X connect 28 6 36 6;
#X connect 28 7 36 7;
#X connect 28 8 36 8;
#X connect 28 9 36 9;
#X connect 28 10 36 10;
#X connect 28 11 36 11;
#X connect 29 0 28 0;
#X connect 30 0 32 0;
#X connect 30 0 28 2;
#X connect 31 0 30 0;
#X connect 33 0 39 0;
#X connect 38 0 30 0;
#X connect 39 0 28 1;
#X connect 40 0 42 0;
#X connect 41 0 49 0;
#X connect 41 1 49 1;
#X connect 41 2 49 2;
#X connect 41 3 49 3;
#X connect 41 4 49 4;
#X connect 41 5 49 5;
#X connect 41 6 49 6;
#X connect 41 7 49 7;
#X connect 41 8 49 8;
#X connect 41 9 49 9;
#X connect 41 10 49 10;
#X connect 41 11 49 11;
#X connect 42 0 41 0;
#X connect 43 0 45 0;
#X connect 43 0 41 2;
#X connect 44 0 43 0;
#X connect 46 0 52 0;
#X connect 51 0 43 0;
#X connect 52 0 41 1;
#X connect 53 0 55 0;
#X connect 54 0 62 0;
#X connect 54 1 62 1;
#X connect 54 2 62 2;
#X connect 54 3 62 3;
#X connect 54 4 62 4;
#X connect 54 5 62 5;
#X connect 54 6 62 6;
#X connect 54 7 62 7;
#X connect 54 8 62 8;
#X connect 54 9 62 9;
#X connect 54 10 62 10;
#X connect 54 11 62 11;
#X connect 55 0 54 0;
#X connect 56 0 58 0;
#X connect 56 0 54 2;
#X connect 57 0 56 0;
#X connect 59 0 65 0;
#X connect 64 0 56 0;
#X connect 65 0 54 1;
#X connect 66 0 69 0;
#X connect 68 0 67 0;
#X connect 70 0 75 0;
#X connect 71 0 1 0;
#X connect 72 0 73 0;
#X connect 74 0 76 0;
#X connect 75 0 66 0;
#X connect 76 0 66 0;
#X connect 77 0 78 0;
#X connect 78 0 1 0;
