#N canvas 250 232 983 315 10;
#X obj 346 43 inlet~;
#X obj 392 43 inlet~;
#X obj 436 43 inlet~;
#X obj 482 43 inlet~;
#X obj 527 43 inlet~;
#X obj 639 43 inlet~;
#X obj 685 43 inlet~;
#X obj 730 43 inlet~;
#X obj 307 118 throw~ c13;
#X obj 375 118 throw~ c14;
#X obj 443 118 throw~ c15;
#X obj 511 118 throw~ c16;
#X obj 578 118 throw~ c17;
#X obj 646 118 throw~ c18;
#X obj 714 118 throw~ c19;
#X obj 781 118 throw~ c20;
#X connect 0 0 8 0;
#X connect 1 0 9 0;
#X connect 2 0 10 0;
#X connect 3 0 11 0;
#X connect 4 0 12 0;
#X connect 5 0 13 0;
#X connect 6 0 14 0;
#X connect 7 0 15 0;
