#N canvas 17 22 1481 906 10;
#X obj 105 154 r \$0-start;
#X obj 174 153 r \$0-stop;
#X msg 174 177 stop;
#X obj 92 646 throw~ devL;
#X obj 169 646 throw~ devR;
#X obj 105 177 t b b;
#X obj 198 233 timer;
#X text 257 258 file length;
#X obj 198 259 nbx 5 14 -1e+37 1e+37 0 0 empty empty empty 0 -8 0 10
-262144 -1 -1 34139.2 256;
#X obj 105 229 volume~;
#X obj 213 178 loadbang;
#X text 242 203 init vol;
#X obj 68 574 *~;
#X obj 32 529 tgl 15 0 empty empty empty 17 7 0 10 -262144 -1 -1 1
1;
#X obj 32 501 r \$0-headphones;
#X obj 105 203 elooper~;
#X msg 153 124 corridor_lowerdrone_21_22_23;
#X obj 104 450 throw~ c21;
#X obj 138 473 throw~ c22;
#X obj 155 496 throw~ c23;
#X obj 193 58 s \$0-start;
#X obj 193 38 bng 15 250 50 0 empty empty empty 17 7 0 10 -262144 -1
-1;
#X obj 263 38 bng 15 250 50 0 empty empty empty 17 7 0 10 -262144 -1
-1;
#X obj 263 58 s \$0-stop;
#X obj 399 154 r \$0-start;
#X obj 468 153 r \$0-stop;
#X msg 468 177 stop;
#X obj 386 646 throw~ devL;
#X obj 463 646 throw~ devR;
#X obj 399 177 t b b;
#X obj 492 233 timer;
#X text 551 258 file length;
#X obj 492 259 nbx 5 14 -1e+37 1e+37 0 0 empty empty empty 0 -8 0 10
-262144 -1 -1 36613.4 256;
#X obj 399 229 volume~;
#X obj 507 178 loadbang;
#X text 536 203 init vol;
#X obj 362 574 *~;
#X obj 326 524 tgl 15 0 empty empty empty 17 7 0 10 -262144 -1 -1 1
1;
#X obj 326 501 r \$0-headphones;
#X obj 399 203 elooper~;
#X obj 398 450 throw~ c21;
#X obj 432 473 throw~ c22;
#X obj 449 496 throw~ c23;
#X msg 447 124 corridor_higherdrone_21_22_23;
#X obj 571 34 s \$0-headphones;
#X obj 573 9 tgl 15 0 empty empty empty 17 7 0 10 -262144 -1 -1 1 1
;
#X obj 697 151 r \$0-start;
#X obj 766 150 r \$0-stop;
#X msg 766 174 stop;
#X obj 684 643 throw~ devL;
#X obj 761 643 throw~ devR;
#X obj 697 174 t b b;
#X obj 790 230 timer;
#X text 849 255 file length;
#X obj 790 256 nbx 5 14 -1e+37 1e+37 0 0 empty empty empty 0 -8 0 10
-262144 -1 -1 31665 256;
#X obj 697 226 volume~;
#X obj 805 175 loadbang;
#X text 834 200 init vol;
#X obj 660 571 *~;
#X obj 624 526 tgl 15 0 empty empty empty 17 7 0 10 -262144 -1 -1 1
1;
#X obj 624 498 r \$0-headphones;
#X obj 697 200 elooper~;
#X obj 696 447 throw~ c21;
#X obj 991 151 r \$0-start;
#X obj 1060 150 r \$0-stop;
#X msg 1060 174 stop;
#X obj 978 643 throw~ devL;
#X obj 1055 643 throw~ devR;
#X obj 991 174 t b b;
#X obj 1084 230 timer;
#X text 1143 255 file length;
#X obj 1084 256 nbx 5 14 -1e+37 1e+37 0 0 empty empty empty 0 -8 0
10 -262144 -1 -1 31665 256;
#X obj 991 226 volume~;
#X obj 1099 175 loadbang;
#X text 1128 200 init vol;
#X obj 954 571 *~;
#X obj 918 521 tgl 15 0 empty empty empty 17 7 0 10 -262144 -1 -1 1
1;
#X obj 918 498 r \$0-headphones;
#X obj 991 200 elooper~;
#X obj 1024 470 throw~ c22;
#X obj 1257 153 r \$0-start;
#X obj 1326 152 r \$0-stop;
#X msg 1326 176 stop;
#X obj 1244 645 throw~ devL;
#X obj 1321 645 throw~ devR;
#X obj 1257 176 t b b;
#X obj 1350 232 timer;
#X text 1409 257 file length;
#X obj 1350 258 nbx 5 14 -1e+37 1e+37 0 0 empty empty empty 0 -8 0
10 -262144 -1 -1 31665 256;
#X obj 1257 228 volume~;
#X obj 1365 177 loadbang;
#X text 1394 202 init vol;
#X obj 1220 573 *~;
#X obj 1184 523 tgl 15 0 empty empty empty 17 7 0 10 -262144 -1 -1
1 1;
#X obj 1184 500 r \$0-headphones;
#X obj 1257 202 elooper~;
#X obj 1307 495 throw~ c23;
#X msg 745 121 corridor_chirps_21;
#X msg 1039 121 corridor_chirps_22;
#X msg 1305 123 corridor_chirps_23;
#X msg 213 201 0.2;
#X msg 507 201 0.2;
#X msg 805 198 0.2;
#X msg 1099 198 0.2;
#X msg 1365 200 0.2;
#X obj 69 786 r \$0-start;
#X obj 138 785 r \$0-stop;
#X msg 138 809 stop;
#X obj 56 1278 throw~ devL;
#X obj 133 1278 throw~ devR;
#X obj 69 809 t b b;
#X obj 162 865 timer;
#X text 221 890 file length;
#X obj 162 891 nbx 5 14 -1e+37 1e+37 0 0 empty empty empty 0 -8 0 10
-262144 -1 -1 23005.1 256;
#X obj 69 861 volume~;
#X obj 177 810 loadbang;
#X text 206 835 init vol;
#X obj 32 1206 *~;
#X obj -4 1161 tgl 15 0 empty empty empty 17 7 0 10 -262144 -1 -1 1
1;
#X obj -4 1133 r \$0-headphones;
#X obj 69 835 elooper~;
#X obj 68 1082 throw~ c21;
#X obj 363 786 r \$0-start;
#X obj 432 785 r \$0-stop;
#X msg 432 809 stop;
#X obj 350 1278 throw~ devL;
#X obj 427 1278 throw~ devR;
#X obj 363 809 t b b;
#X obj 456 865 timer;
#X text 515 890 file length;
#X obj 456 891 nbx 5 14 -1e+37 1e+37 0 0 empty empty empty 0 -8 0 10
-262144 -1 -1 23005.1 256;
#X obj 363 861 volume~;
#X obj 471 810 loadbang;
#X text 500 835 init vol;
#X obj 326 1206 *~;
#X obj 290 1156 tgl 15 0 empty empty empty 17 7 0 10 -262144 -1 -1
1 1;
#X obj 290 1133 r \$0-headphones;
#X obj 363 835 elooper~;
#X obj 396 1105 throw~ c22;
#X obj 629 788 r \$0-start;
#X obj 698 787 r \$0-stop;
#X msg 698 811 stop;
#X obj 616 1280 throw~ devL;
#X obj 693 1280 throw~ devR;
#X obj 629 811 t b b;
#X obj 722 867 timer;
#X text 781 892 file length;
#X obj 722 893 nbx 5 14 -1e+37 1e+37 0 0 empty empty empty 0 -8 0 10
-262144 -1 -1 23005.1 256;
#X obj 629 863 volume~;
#X obj 737 812 loadbang;
#X text 766 837 init vol;
#X obj 592 1208 *~;
#X obj 556 1158 tgl 15 0 empty empty empty 17 7 0 10 -262144 -1 -1
1 1;
#X obj 556 1135 r \$0-headphones;
#X obj 629 837 elooper~;
#X obj 679 1130 throw~ c23;
#X msg 177 833 0.2;
#X msg 471 833 0.2;
#X msg 737 835 0.2;
#X msg 117 756 corridor_fairydust_21;
#X msg 411 756 corridor_fairydust_22;
#X msg 677 758 corridor_fairydust_23;
#X obj 908 789 r \$0-start;
#X obj 977 788 r \$0-stop;
#X msg 977 812 stop;
#X obj 895 1281 throw~ devL;
#X obj 972 1281 throw~ devR;
#X obj 908 812 t b b;
#X obj 1001 868 timer;
#X text 1060 893 file length;
#X obj 1001 894 nbx 5 14 -1e+37 1e+37 0 0 empty empty empty 0 -8 0
10 -262144 -1 -1 30427.8 256;
#X obj 908 864 volume~;
#X obj 1016 813 loadbang;
#X text 1045 838 init vol;
#X obj 871 1209 *~;
#X obj 835 1136 r \$0-headphones;
#X obj 908 838 elooper~;
#X obj 907 1085 throw~ c21;
#X obj 1202 789 r \$0-start;
#X obj 1271 788 r \$0-stop;
#X msg 1271 812 stop;
#X obj 1189 1281 throw~ devL;
#X obj 1266 1281 throw~ devR;
#X obj 1202 812 t b b;
#X obj 1295 868 timer;
#X text 1354 893 file length;
#X obj 1295 894 nbx 5 14 -1e+37 1e+37 0 0 empty empty empty 0 -8 0
10 -262144 -1 -1 30427.8 256;
#X obj 1202 864 volume~;
#X obj 1310 813 loadbang;
#X text 1339 838 init vol;
#X obj 1165 1209 *~;
#X obj 1129 1159 tgl 15 0 empty empty empty 17 7 0 10 -262144 -1 -1
1 1;
#X obj 1129 1136 r \$0-headphones;
#X obj 1202 838 elooper~;
#X obj 1235 1108 throw~ c22;
#X obj 1468 791 r \$0-start;
#X obj 1537 790 r \$0-stop;
#X msg 1537 814 stop;
#X obj 1455 1283 throw~ devL;
#X obj 1532 1283 throw~ devR;
#X obj 1468 814 t b b;
#X obj 1561 870 timer;
#X text 1620 895 file length;
#X obj 1561 896 nbx 5 14 -1e+37 1e+37 0 0 empty empty empty 0 -8 0
10 -262144 -1 -1 30427.8 256;
#X obj 1468 866 volume~;
#X obj 1576 815 loadbang;
#X text 1605 840 init vol;
#X obj 1431 1211 *~;
#X obj 1395 1161 tgl 15 0 empty empty empty 17 7 0 10 -262144 -1 -1
1 1;
#X obj 1395 1138 r \$0-headphones;
#X obj 1468 840 elooper~;
#X obj 1518 1133 throw~ c23;
#X msg 1016 836 0.2;
#X msg 1310 836 0.2;
#X msg 1576 838 0.2;
#X msg 956 759 corridor_jingles_21;
#X msg 1250 759 corridor_jingles_22;
#X msg 1516 761 corridor_jingles_23;
#X obj 194 -13 r corridor;
#X obj 194 12 sel 0 1;
#X obj 573 -20 inlet;
#X connect 0 0 5 0;
#X connect 1 0 2 0;
#X connect 2 0 15 0;
#X connect 5 0 15 0;
#X connect 5 1 16 0;
#X connect 6 0 8 0;
#X connect 9 0 12 0;
#X connect 9 0 17 0;
#X connect 9 0 18 0;
#X connect 9 0 19 0;
#X connect 10 0 100 0;
#X connect 12 0 3 0;
#X connect 12 0 4 0;
#X connect 13 0 12 1;
#X connect 14 0 13 0;
#X connect 15 0 9 0;
#X connect 15 1 6 0;
#X connect 15 2 6 1;
#X connect 16 0 15 2;
#X connect 21 0 20 0;
#X connect 22 0 23 0;
#X connect 24 0 29 0;
#X connect 25 0 26 0;
#X connect 26 0 39 0;
#X connect 29 0 39 0;
#X connect 29 1 43 0;
#X connect 30 0 32 0;
#X connect 33 0 36 0;
#X connect 33 0 40 0;
#X connect 33 0 41 0;
#X connect 33 0 42 0;
#X connect 34 0 101 0;
#X connect 36 0 27 0;
#X connect 36 0 28 0;
#X connect 37 0 36 1;
#X connect 38 0 37 0;
#X connect 39 0 33 0;
#X connect 39 1 30 0;
#X connect 39 2 30 1;
#X connect 43 0 39 2;
#X connect 45 0 44 0;
#X connect 46 0 51 0;
#X connect 47 0 48 0;
#X connect 48 0 61 0;
#X connect 51 0 61 0;
#X connect 51 1 97 0;
#X connect 52 0 54 0;
#X connect 55 0 58 0;
#X connect 55 0 62 0;
#X connect 56 0 102 0;
#X connect 58 0 49 0;
#X connect 58 0 50 0;
#X connect 59 0 58 1;
#X connect 60 0 59 0;
#X connect 61 0 55 0;
#X connect 61 1 52 0;
#X connect 61 2 52 1;
#X connect 63 0 68 0;
#X connect 64 0 65 0;
#X connect 65 0 78 0;
#X connect 68 0 78 0;
#X connect 68 1 98 0;
#X connect 69 0 71 0;
#X connect 72 0 75 0;
#X connect 72 0 79 0;
#X connect 73 0 103 0;
#X connect 75 0 66 0;
#X connect 75 0 67 0;
#X connect 76 0 75 1;
#X connect 77 0 76 0;
#X connect 78 0 72 0;
#X connect 78 1 69 0;
#X connect 78 2 69 1;
#X connect 80 0 85 0;
#X connect 81 0 82 0;
#X connect 82 0 95 0;
#X connect 85 0 95 0;
#X connect 85 1 99 0;
#X connect 86 0 88 0;
#X connect 89 0 92 0;
#X connect 89 0 96 0;
#X connect 90 0 104 0;
#X connect 92 0 83 0;
#X connect 92 0 84 0;
#X connect 93 0 92 1;
#X connect 94 0 93 0;
#X connect 95 0 89 0;
#X connect 95 1 86 0;
#X connect 95 2 86 1;
#X connect 97 0 61 2;
#X connect 98 0 78 2;
#X connect 99 0 95 2;
#X connect 100 0 9 1;
#X connect 101 0 33 1;
#X connect 102 0 55 1;
#X connect 103 0 72 1;
#X connect 104 0 89 1;
#X connect 105 0 110 0;
#X connect 106 0 107 0;
#X connect 107 0 120 0;
#X connect 110 0 120 0;
#X connect 110 1 159 0;
#X connect 111 0 113 0;
#X connect 114 0 117 0;
#X connect 114 0 121 0;
#X connect 115 0 156 0;
#X connect 117 0 108 0;
#X connect 117 0 109 0;
#X connect 118 0 117 1;
#X connect 119 0 118 0;
#X connect 120 0 114 0;
#X connect 120 1 111 0;
#X connect 120 2 111 1;
#X connect 122 0 127 0;
#X connect 123 0 124 0;
#X connect 124 0 137 0;
#X connect 127 0 137 0;
#X connect 127 1 160 0;
#X connect 128 0 130 0;
#X connect 131 0 134 0;
#X connect 131 0 138 0;
#X connect 132 0 157 0;
#X connect 134 0 125 0;
#X connect 134 0 126 0;
#X connect 135 0 134 1;
#X connect 136 0 135 0;
#X connect 137 0 131 0;
#X connect 137 1 128 0;
#X connect 137 2 128 1;
#X connect 139 0 144 0;
#X connect 140 0 141 0;
#X connect 141 0 154 0;
#X connect 144 0 154 0;
#X connect 144 1 161 0;
#X connect 145 0 147 0;
#X connect 148 0 151 0;
#X connect 148 0 155 0;
#X connect 149 0 158 0;
#X connect 151 0 142 0;
#X connect 151 0 143 0;
#X connect 152 0 151 1;
#X connect 153 0 152 0;
#X connect 154 0 148 0;
#X connect 154 1 145 0;
#X connect 154 2 145 1;
#X connect 156 0 114 1;
#X connect 157 0 131 1;
#X connect 158 0 148 1;
#X connect 159 0 120 2;
#X connect 160 0 137 2;
#X connect 161 0 154 2;
#X connect 162 0 167 0;
#X connect 163 0 164 0;
#X connect 164 0 176 0;
#X connect 167 0 176 0;
#X connect 167 1 215 0;
#X connect 168 0 170 0;
#X connect 171 0 174 0;
#X connect 171 0 177 0;
#X connect 172 0 212 0;
#X connect 174 0 165 0;
#X connect 174 0 166 0;
#X connect 176 0 171 0;
#X connect 176 1 168 0;
#X connect 176 2 168 1;
#X connect 178 0 183 0;
#X connect 179 0 180 0;
#X connect 180 0 193 0;
#X connect 183 0 193 0;
#X connect 183 1 216 0;
#X connect 184 0 186 0;
#X connect 187 0 190 0;
#X connect 187 0 194 0;
#X connect 188 0 213 0;
#X connect 190 0 181 0;
#X connect 190 0 182 0;
#X connect 191 0 190 1;
#X connect 192 0 191 0;
#X connect 193 0 187 0;
#X connect 193 1 184 0;
#X connect 193 2 184 1;
#X connect 195 0 200 0;
#X connect 196 0 197 0;
#X connect 197 0 210 0;
#X connect 200 0 210 0;
#X connect 200 1 217 0;
#X connect 201 0 203 0;
#X connect 204 0 207 0;
#X connect 204 0 211 0;
#X connect 205 0 214 0;
#X connect 207 0 198 0;
#X connect 207 0 199 0;
#X connect 208 0 207 1;
#X connect 209 0 208 0;
#X connect 210 0 204 0;
#X connect 210 1 201 0;
#X connect 210 2 201 1;
#X connect 212 0 171 1;
#X connect 213 0 187 1;
#X connect 214 0 204 1;
#X connect 215 0 176 2;
#X connect 216 0 193 2;
#X connect 217 0 210 2;
#X connect 218 0 219 0;
#X connect 219 0 22 0;
#X connect 219 1 21 0;
#X connect 220 0 45 0;
