#N canvas 0 22 1108 751 10;
#X obj 215 187 r \$0-start;
#X obj 284 186 r \$0-stop;
#X msg 284 210 stop;
#X obj 202 679 throw~ devL;
#X obj 279 679 throw~ devR;
#X obj 215 210 t b b;
#X obj 308 266 timer;
#X text 367 291 file length;
#X obj 308 292 nbx 5 14 -1e+37 1e+37 0 0 empty empty empty 0 -8 0 10
-262144 -1 -1 29190.7 256;
#X obj 215 262 volume~;
#X msg 323 234 1;
#X obj 323 211 loadbang;
#X text 352 236 init vol;
#X obj 178 607 *~;
#X obj 142 562 tgl 15 0 empty empty empty 17 7 0 10 -262144 -1 -1 0
1;
#X obj 142 534 r \$0-headphones;
#X obj 215 236 elooper~;
#X msg 263 157 corridor_bass_pa;
#X obj 194 58 s \$0-start;
#X obj 194 38 bng 15 250 50 0 empty empty empty 17 7 0 10 -262144 -1
-1;
#X obj 264 38 bng 15 250 50 0 empty empty empty 17 7 0 10 -262144 -1
-1;
#X obj 264 58 s \$0-stop;
#X obj 571 34 s \$0-headphones;
#X obj 573 9 tgl 15 0 empty empty empty 17 7 0 10 -262144 -1 -1 0 1
;
#X obj 194 -13 r corridor;
#X obj 194 12 sel 0 1;
#X obj 271 468 throw~ c5;
#X obj 287 490 throw~ c6;
#X obj 305 512 throw~ c7;
#X obj 321 534 throw~ c8;
#X obj 334 557 throw~ c9;
#X obj 587 177 r \$0-start;
#X obj 656 176 r \$0-stop;
#X msg 656 200 stop;
#X obj 587 200 t b b;
#X obj 680 256 timer;
#X text 739 281 file length;
#X obj 680 282 nbx 5 14 -1e+37 1e+37 0 0 empty empty empty 0 -8 0 10
-262144 -1 -1 29190.7 256;
#X obj 588 268 volume~;
#X msg 695 224 1;
#X obj 695 201 loadbang;
#X text 724 226 init vol;
#X obj 591 540 tgl 15 0 empty empty empty 17 7 0 10 -262144 -1 -1 0
1;
#X obj 591 512 r \$0-headphones;
#X obj 587 226 elooper~;
#X msg 635 147 corridor_bumps_pa;
#X obj 693 620 2_ch_selector;
#X obj 730 507 5_ch_selector;
#X obj 735 455 mod 4;
#X floatatom 735 479 5 0 0 0 - - -, f 5;
#X obj 777 455 mod 2;
#X obj 693 591 *~;
#X obj 735 430 f;
#X obj 768 430 + 1;
#X obj 733 337 delay 7151;
#X obj 743 362 delay 17020;
#X obj 757 387 delay 26295;
#X obj 575 -13 inlet;
#X connect 0 0 5 0;
#X connect 1 0 2 0;
#X connect 2 0 16 0;
#X connect 5 0 16 0;
#X connect 5 1 17 0;
#X connect 6 0 8 0;
#X connect 9 0 13 0;
#X connect 9 0 26 0;
#X connect 9 0 27 0;
#X connect 9 0 28 0;
#X connect 9 0 29 0;
#X connect 9 0 30 0;
#X connect 10 0 9 1;
#X connect 11 0 10 0;
#X connect 13 0 3 0;
#X connect 13 0 4 0;
#X connect 14 0 13 1;
#X connect 15 0 14 0;
#X connect 16 0 9 0;
#X connect 16 1 6 0;
#X connect 16 2 6 1;
#X connect 17 0 16 2;
#X connect 19 0 18 0;
#X connect 20 0 21 0;
#X connect 23 0 22 0;
#X connect 24 0 25 0;
#X connect 25 0 20 0;
#X connect 25 1 19 0;
#X connect 31 0 34 0;
#X connect 32 0 33 0;
#X connect 33 0 44 0;
#X connect 34 0 44 0;
#X connect 34 1 45 0;
#X connect 35 0 37 0;
#X connect 38 0 47 0;
#X connect 38 0 51 0;
#X connect 39 0 38 1;
#X connect 40 0 39 0;
#X connect 42 0 51 1;
#X connect 43 0 42 0;
#X connect 44 0 38 0;
#X connect 44 1 35 0;
#X connect 44 1 54 0;
#X connect 44 1 55 0;
#X connect 44 1 56 0;
#X connect 44 2 35 1;
#X connect 44 2 54 0;
#X connect 44 2 55 0;
#X connect 44 2 56 0;
#X connect 45 0 44 2;
#X connect 48 0 47 1;
#X connect 48 0 49 0;
#X connect 50 0 46 1;
#X connect 51 0 46 0;
#X connect 52 0 53 0;
#X connect 52 0 48 0;
#X connect 52 0 50 0;
#X connect 53 0 52 1;
#X connect 54 0 52 0;
#X connect 55 0 52 0;
#X connect 56 0 52 0;
#X connect 57 0 23 0;
