#N canvas 127 96 702 758 10;
#X obj 109 118 vu 15 120 empty empty -1 -8 0 10 -66577 -1 1 0;
#X obj 99 77 - 100;
#X obj 64 -121 dbtorms;
#X obj 114 -48 inlet~;
#X msg 103 341 \; pd dsp 1;
#X obj 64 -48 line~;
#X obj 99 24 *~;
#X obj 64 -91 pack 0 50;
#X text 156 -72 audio in;
#X text 135 -122 <-- convert from dB to linear units;
#X text 153 -92 <-- make a ramp to avoid clicks or zipper noise;
#X text 258 324 MUTE logic:;
#X obj -14 199 r \$0-master-lvl;
#X obj 206 525 s \$0-master-lvl;
#X obj 64 -143 r \$0-master-out;
#X text -69 350 automatically start DSP -->;
#X obj 114 -19 hip~ 3;
#X obj 119 252 nbx 3 14 -99 0 0 0 empty empty dB -15 8 0 10 -257985
-1 -1 0 256;
#X obj 388 131 inlet;
#X obj -40 438 outlet~;
#X obj 388 153 / 127;
#X obj 388 176 * 100;
#X obj -9 397 *~ 1;
#X obj 388 201 - 100;
#X obj 17 439 dac~ \$1;
#X obj 99 55 env~ 8192;
#X obj 140 268 tgl 15 0 empty empty mute -38 7 0 10 -258113 -1 -1 0
1;
#X floatatom 285 494 5 0 0 0 - - -, f 5;
#X obj 347 432 spigot;
#X obj 243 386 t b b;
#X msg 346 407 0;
#X msg 375 407 1;
#X obj 206 386 t b b;
#X obj 206 355 sel 0 1;
#X floatatom 280 469 5 0 0 0 - - -, f 5;
#X obj 347 458 s \$0-master-store;
#X obj 221 440 r \$0-master-store;
#X obj 391 314 s \$0-master-out;
#X obj 391 286 + 100;
#X msg 237 467 -99;
#X obj 206 467 f 0;
#X obj 207 119 r mute;
#X connect 1 0 0 0;
#X connect 2 0 7 0;
#X connect 3 0 16 0;
#X connect 5 0 6 0;
#X connect 6 0 22 0;
#X connect 6 0 25 0;
#X connect 7 0 5 0;
#X connect 12 0 17 0;
#X connect 14 0 2 0;
#X connect 16 0 6 1;
#X connect 17 0 4 0;
#X connect 17 0 28 0;
#X connect 17 0 38 0;
#X connect 18 0 20 0;
#X connect 20 0 21 0;
#X connect 21 0 23 0;
#X connect 22 0 19 0;
#X connect 22 0 24 0;
#X connect 23 0 17 0;
#X connect 25 0 1 0;
#X connect 26 0 33 0;
#X connect 28 0 35 0;
#X connect 29 0 39 0;
#X connect 29 1 30 0;
#X connect 30 0 28 1;
#X connect 31 0 28 1;
#X connect 32 0 40 0;
#X connect 32 1 31 0;
#X connect 33 0 32 0;
#X connect 33 1 29 0;
#X connect 36 0 34 0;
#X connect 36 0 40 1;
#X connect 38 0 37 0;
#X connect 39 0 13 0;
#X connect 40 0 13 0;
#X connect 40 0 27 0;
#X connect 41 0 26 0;
#X coords 0 -1 1 1 58 185 1 100 100;
