#N canvas 409 23 1343 934 10;
#X obj 90 103 output~ 1;
#X text 185 299 bar PA;
#X text 179 629 corridor PA;
#X obj 561 771 noise~;
#X obj 561 820 *~;
#X obj 576 723 tgl 35 0 empty empty noise 0 -7 0 10 -4034 -1 -1 0 1
;
#X obj 561 794 *~ 0.5;
#X obj 615 820 *~;
#X obj 615 794 *~ 0.5;
#X text 62 897 live feed;
#X text 275 898 sizzle reel;
#X text 800 307 bar pendants;
#X obj 561 851 send~ test;
#X obj 807 60 receive~ test;
#X obj 197 63 receive~ test;
#X obj 175 391 receive~ test;
#X obj 60 678 receive~ test;
#X obj 247 681 receive~ test;
#X obj 858 375 receive~ test;
#X obj 827 721 loadbang;
#X obj 856 765 tgl 50 0 empty empty global_mute 0 -7 0 10 -258113 -1
-1 0 1;
#X obj 856 822 s mute;
#X obj 630 724 tgl 35 0 empty empty test_tone 0 -7 0 10 -4034 -1 -1
0 1;
#X obj 615 771 osc~ 440;
#X text 790 630 corridor pendants;
#X obj 1072 644 receive~ test;
#X text 1079 884 keynote PA;
#X obj 425 41 throw~2send~;
#X obj 74 25 catch~ devL;
#X obj 148 26 catch~ devR;
#X obj 85 63 *~;
#X obj 144 63 *~;
#X obj 227 28 tgl 15 0 empty empty empty 17 7 0 10 -262144 -1 -1 1
1;
#X obj 376 95 vsl 15 128 -99 0 0 0 empty empty empty 0 -9 0 10 -262144
-1 -1 12700 1;
#X obj 154 670 r fade;
#X obj 152 103 output~ 2;
#X obj 214 103 output~ 3;
#X obj 277 103 output~ 4;
#X obj 60 433 output~ 5;
#X obj 122 433 output~ 6;
#X obj 184 433 output~ 7;
#X obj 246 433 output~ 8;
#X obj 308 433 output~ 9;
#X obj 60 705 output~ 10;
#X obj 247 708 output~ 11;
#X obj 314 708 output~ 12;
#X obj 570 107 output~ 13;
#X obj 637 107 output~ 14;
#X obj 705 107 output~ 15;
#X obj 772 107 output~ 16;
#X obj 839 107 output~ 17;
#X obj 906 107 output~ 18;
#X obj 973 107 output~ 19;
#X obj 1040 107 output~ 20;
#X obj 442 433 output~ 21;
#X obj 509 433 output~ 22;
#X obj 577 433 output~ 23;
#X obj 644 433 output~ 24;
#X obj 711 433 output~ 25;
#X obj 778 433 output~ 26;
#X obj 847 432 output~ 27;
#X obj 914 432 output~ 28;
#X obj 982 432 output~ 29;
#X obj 1049 432 output~ 30;
#X obj 1116 432 output~ 31;
#X obj 1183 432 output~ 32;
#X obj 973 691 output~ 33;
#X obj 1040 691 output~ 34;
#X obj 1108 691 output~ 35;
#X obj 1175 691 output~ 36;
#X obj 1122 106 vsl 15 128 -99 0 0 0 empty empty empty 0 -9 0 10 -262144
-1 -1 12700 1;
#X obj 315 65 r fade;
#X obj 1031 66 r fade;
#X obj 382 434 vsl 15 128 -99 0 0 0 empty empty empty 0 -9 0 10 -262144
-1 -1 12700 1;
#X obj 286 387 r fade;
#X obj 1275 448 vsl 15 128 -99 0 0 0 empty empty empty 0 -9 0 10 -262144
-1 -1 12700 1;
#X obj 775 371 r fade;
#X obj 404 709 vsl 15 128 -99 0 0 0 empty empty empty 0 -9 0 10 -262144
-1 -1 0 1;
#X obj 343 679 r fade;
#X obj 1260 711 vsl 15 128 -99 0 0 0 empty empty empty 0 -9 0 10 -262144
-1 -1 12700 1;
#X connect 3 0 6 0;
#X connect 4 0 12 0;
#X connect 5 0 4 1;
#X connect 6 0 4 0;
#X connect 7 0 12 0;
#X connect 8 0 7 0;
#X connect 13 0 46 0;
#X connect 13 0 47 0;
#X connect 13 0 48 0;
#X connect 13 0 49 0;
#X connect 13 0 50 0;
#X connect 13 0 51 0;
#X connect 13 0 52 0;
#X connect 13 0 53 0;
#X connect 14 0 0 0;
#X connect 14 0 35 0;
#X connect 14 0 36 0;
#X connect 14 0 37 0;
#X connect 15 0 38 0;
#X connect 15 0 39 0;
#X connect 15 0 40 0;
#X connect 15 0 41 0;
#X connect 15 0 42 0;
#X connect 16 0 43 0;
#X connect 17 0 44 0;
#X connect 17 0 45 0;
#X connect 18 0 54 0;
#X connect 18 0 55 0;
#X connect 18 0 56 0;
#X connect 18 0 57 0;
#X connect 18 0 58 0;
#X connect 18 0 59 0;
#X connect 18 0 60 0;
#X connect 18 0 61 0;
#X connect 18 0 62 0;
#X connect 18 0 63 0;
#X connect 18 0 64 0;
#X connect 18 0 65 0;
#X connect 19 0 20 0;
#X connect 20 0 21 0;
#X connect 22 0 7 1;
#X connect 23 0 8 0;
#X connect 25 0 66 0;
#X connect 25 0 67 0;
#X connect 25 0 68 0;
#X connect 25 0 69 0;
#X connect 28 0 30 0;
#X connect 29 0 31 0;
#X connect 30 0 0 0;
#X connect 31 0 35 0;
#X connect 32 0 31 1;
#X connect 32 0 30 1;
#X connect 33 0 0 2;
#X connect 33 0 35 2;
#X connect 33 0 36 2;
#X connect 33 0 37 2;
#X connect 34 0 43 1;
#X connect 70 0 46 2;
#X connect 70 0 47 2;
#X connect 70 0 48 2;
#X connect 70 0 49 2;
#X connect 70 0 50 2;
#X connect 70 0 51 2;
#X connect 70 0 52 2;
#X connect 70 0 53 2;
#X connect 71 0 0 1;
#X connect 71 0 35 1;
#X connect 71 0 36 1;
#X connect 71 0 37 1;
#X connect 72 0 46 1;
#X connect 72 0 47 1;
#X connect 72 0 48 1;
#X connect 72 0 49 1;
#X connect 72 0 50 1;
#X connect 72 0 51 1;
#X connect 72 0 52 1;
#X connect 72 0 53 1;
#X connect 73 0 38 2;
#X connect 73 0 39 2;
#X connect 73 0 40 2;
#X connect 73 0 41 2;
#X connect 73 0 42 2;
#X connect 74 0 42 1;
#X connect 74 0 41 1;
#X connect 74 0 40 1;
#X connect 74 0 39 1;
#X connect 74 0 38 1;
#X connect 75 0 54 2;
#X connect 75 0 55 2;
#X connect 75 0 56 2;
#X connect 75 0 57 2;
#X connect 75 0 58 2;
#X connect 75 0 59 2;
#X connect 75 0 60 2;
#X connect 75 0 61 2;
#X connect 75 0 62 2;
#X connect 75 0 63 2;
#X connect 75 0 64 2;
#X connect 75 0 65 2;
#X connect 76 0 54 1;
#X connect 76 0 55 1;
#X connect 76 0 56 1;
#X connect 76 0 57 1;
#X connect 76 0 58 1;
#X connect 76 0 59 1;
#X connect 76 0 60 1;
#X connect 76 0 61 1;
#X connect 76 0 62 1;
#X connect 76 0 63 1;
#X connect 76 0 64 1;
#X connect 76 0 65 1;
#X connect 77 0 44 2;
#X connect 77 0 45 2;
#X connect 78 0 45 1;
#X connect 78 0 44 1;
#X connect 79 0 69 2;
#X connect 79 0 68 2;
#X connect 79 0 67 2;
#X connect 79 0 66 2;
