#N canvas 26 81 1169 580 10;
#X obj 135 207 r \$0-start;
#X obj 204 206 r \$0-stop;
#X msg 204 230 stop;
#X obj 135 230 t b b;
#X obj 228 286 timer;
#X text 281 294 file length;
#X obj 135 282 volume~;
#X msg 243 254 1;
#X obj 243 231 loadbang;
#X text 272 256 init vol;
#X obj 135 256 elooper~;
#X msg 228 311 set \$1;
#X msg 278 312 51458.8;
#X obj 147 495 sizzle_feed_pa_thrower, f 27;
#X obj 82 558 throw~ devL;
#X obj 82 510 *~;
#X obj 73 462 tgl 15 0 empty empty empty 17 7 0 10 -262144 -1 -1 1
1;
#X obj 22 413 r \$0-headphones;
#X obj 74 96 s \$0-start;
#X obj 74 76 bng 15 250 50 0 empty empty empty 17 7 0 10 -262144 -1
-1;
#X obj 144 76 bng 15 250 50 0 empty empty empty 17 7 0 10 -262144 -1
-1;
#X obj 144 96 s \$0-stop;
#X obj 452 87 s \$0-headphones;
#X obj 454 62 tgl 15 0 empty empty empty 17 7 0 10 -262144 -1 -1 1
1;
#X obj 76 53 sel 0 1;
#X obj 76 28 r bar;
#X obj 494 191 r \$0-start;
#X obj 563 190 r \$0-stop;
#X msg 563 214 stop;
#X obj 494 214 t b b;
#X obj 587 270 timer;
#X text 640 278 file length;
#X obj 494 266 volume~;
#X msg 602 238 1;
#X obj 602 215 loadbang;
#X text 631 240 init vol;
#X obj 494 240 elooper~;
#X msg 587 295 set \$1;
#X msg 637 296 19637.3;
#X obj 506 479 sizzle_feed_pa_thrower, f 27;
#X obj 417 470 *~;
#X obj 432 446 tgl 15 0 empty empty empty 17 7 0 10 -262144 -1 -1 1
1;
#X obj 381 397 r \$0-headphones;
#X obj 832 191 r \$0-start;
#X obj 901 190 r \$0-stop;
#X msg 901 214 stop;
#X obj 832 214 t b b;
#X obj 925 270 timer;
#X text 978 278 file length;
#X obj 832 266 volume~;
#X msg 940 238 1;
#X obj 940 215 loadbang;
#X text 969 240 init vol;
#X obj 832 240 elooper~;
#X msg 925 295 set \$1;
#X msg 975 296 12940;
#X obj 844 479 sizzle_feed_pa_thrower, f 27;
#X obj 755 470 *~;
#X obj 770 446 tgl 15 0 empty empty empty 17 7 0 10 -262144 -1 -1 1
1;
#X obj 719 397 r \$0-headphones;
#X obj 1191 175 r \$0-start;
#X obj 1260 174 r \$0-stop;
#X msg 1260 198 stop;
#X obj 1191 198 t b b;
#X obj 1284 254 timer;
#X text 1337 262 file length;
#X obj 1191 250 volume~;
#X msg 1299 222 1;
#X obj 1299 199 loadbang;
#X text 1328 224 init vol;
#X obj 1191 224 elooper~;
#X msg 1284 279 set \$1;
#X msg 1334 280 12513.3;
#X obj 1203 463 sizzle_feed_pa_thrower, f 27;
#X obj 1114 454 *~;
#X obj 1129 430 tgl 15 0 empty empty empty 17 7 0 10 -262144 -1 -1
1 1;
#X obj 1078 381 r \$0-headphones;
#X msg 183 177 sizzlefeedkeynote_hissdrone_allPA;
#X msg 542 161 sizzlefeedkeynote_rhodes1_allPA;
#X msg 880 161 sizzlefeedkeynote_rhodes2_allPA;
#X msg 1239 145 sizzlefeedkeynote_rhodes3_allPA;
#X obj 244 644 r \$0-start;
#X obj 313 643 r \$0-stop;
#X msg 313 667 stop;
#X obj 244 667 t b b;
#X obj 337 723 timer;
#X text 390 731 file length;
#X obj 244 719 volume~;
#X msg 352 691 1;
#X obj 352 668 loadbang;
#X text 381 693 init vol;
#X obj 244 693 elooper~;
#X msg 337 748 set \$1;
#X msg 387 749 93520.6;
#X obj 256 932 sizzle_feed_pa_thrower, f 27;
#X obj 167 923 *~;
#X obj 182 899 tgl 15 0 empty empty empty 17 7 0 10 -262144 -1 -1 1
1;
#X obj 131 850 r \$0-headphones;
#X obj 603 628 r \$0-start;
#X obj 672 627 r \$0-stop;
#X msg 672 651 stop;
#X obj 603 651 t b b;
#X obj 696 707 timer;
#X text 749 715 file length;
#X obj 603 703 volume~;
#X msg 711 675 1;
#X obj 711 652 loadbang;
#X text 740 677 init vol;
#X obj 603 677 elooper~;
#X msg 696 732 set \$1;
#X msg 746 733 125686;
#X obj 615 916 sizzle_feed_pa_thrower, f 27;
#X obj 526 907 *~;
#X obj 541 883 tgl 15 0 empty empty empty 17 7 0 10 -262144 -1 -1 1
1;
#X obj 490 834 r \$0-headphones;
#X msg 292 614 sizzlefeedkeynote_rhodessweeps_allPA;
#X msg 651 598 sizzlefeedkeynote_yesdrone_allPA;
#X obj 160 558 throw~ devR;
#X obj 415 524 throw~ devL;
#X obj 493 524 throw~ devR;
#X obj 758 521 throw~ devL;
#X obj 836 521 throw~ devR;
#X obj 1115 511 throw~ devL;
#X obj 1193 511 throw~ devR;
#X obj 526 950 throw~ devL;
#X obj 604 950 throw~ devR;
#X obj 162 960 throw~ devL;
#X obj 240 960 throw~ devR;
#X connect 0 0 3 0;
#X connect 1 0 2 0;
#X connect 2 0 10 0;
#X connect 3 0 10 0;
#X connect 3 1 77 0;
#X connect 4 0 11 0;
#X connect 6 0 13 0;
#X connect 6 0 15 0;
#X connect 7 0 6 1;
#X connect 8 0 7 0;
#X connect 10 0 6 0;
#X connect 10 1 4 0;
#X connect 10 2 4 1;
#X connect 11 0 12 0;
#X connect 15 0 14 0;
#X connect 15 0 117 0;
#X connect 16 0 15 1;
#X connect 17 0 16 0;
#X connect 19 0 18 0;
#X connect 20 0 21 0;
#X connect 23 0 22 0;
#X connect 24 0 20 0;
#X connect 24 1 19 0;
#X connect 25 0 24 0;
#X connect 26 0 29 0;
#X connect 27 0 28 0;
#X connect 28 0 36 0;
#X connect 29 0 36 0;
#X connect 29 1 78 0;
#X connect 30 0 37 0;
#X connect 32 0 39 0;
#X connect 32 0 40 0;
#X connect 33 0 32 1;
#X connect 34 0 33 0;
#X connect 36 0 32 0;
#X connect 36 1 30 0;
#X connect 36 2 30 1;
#X connect 37 0 38 0;
#X connect 40 0 118 0;
#X connect 40 0 119 0;
#X connect 41 0 40 1;
#X connect 42 0 41 0;
#X connect 43 0 46 0;
#X connect 44 0 45 0;
#X connect 45 0 53 0;
#X connect 46 0 53 0;
#X connect 46 1 79 0;
#X connect 47 0 54 0;
#X connect 49 0 56 0;
#X connect 49 0 57 0;
#X connect 50 0 49 1;
#X connect 51 0 50 0;
#X connect 53 0 49 0;
#X connect 53 1 47 0;
#X connect 53 2 47 1;
#X connect 54 0 55 0;
#X connect 57 0 120 0;
#X connect 57 0 121 0;
#X connect 58 0 57 1;
#X connect 59 0 58 0;
#X connect 60 0 63 0;
#X connect 61 0 62 0;
#X connect 62 0 70 0;
#X connect 63 0 70 0;
#X connect 63 1 80 0;
#X connect 64 0 71 0;
#X connect 66 0 73 0;
#X connect 66 0 74 0;
#X connect 67 0 66 1;
#X connect 68 0 67 0;
#X connect 70 0 66 0;
#X connect 70 1 64 0;
#X connect 70 2 64 1;
#X connect 71 0 72 0;
#X connect 74 0 122 0;
#X connect 74 0 123 0;
#X connect 75 0 74 1;
#X connect 76 0 75 0;
#X connect 77 0 10 2;
#X connect 78 0 36 2;
#X connect 79 0 53 2;
#X connect 80 0 70 2;
#X connect 81 0 84 0;
#X connect 82 0 83 0;
#X connect 83 0 91 0;
#X connect 84 0 91 0;
#X connect 84 1 115 0;
#X connect 85 0 92 0;
#X connect 87 0 94 0;
#X connect 87 0 95 0;
#X connect 88 0 87 1;
#X connect 89 0 88 0;
#X connect 91 0 87 0;
#X connect 91 1 85 0;
#X connect 91 2 85 1;
#X connect 92 0 93 0;
#X connect 95 0 126 0;
#X connect 95 0 127 0;
#X connect 96 0 95 1;
#X connect 97 0 96 0;
#X connect 98 0 101 0;
#X connect 99 0 100 0;
#X connect 100 0 108 0;
#X connect 101 0 108 0;
#X connect 101 1 116 0;
#X connect 102 0 109 0;
#X connect 104 0 111 0;
#X connect 104 0 112 0;
#X connect 105 0 104 1;
#X connect 106 0 105 0;
#X connect 108 0 104 0;
#X connect 108 1 102 0;
#X connect 108 2 102 1;
#X connect 109 0 110 0;
#X connect 112 0 124 0;
#X connect 112 0 125 0;
#X connect 113 0 112 1;
#X connect 114 0 113 0;
#X connect 115 0 91 2;
#X connect 116 0 108 2;
