#N canvas 256 710 983 315 10;
#X obj 355 23 inlet~;
#X obj 307 118 throw~ c11;
#X obj 375 118 throw~ c12;
#X obj 443 118 throw~ c10;
#X obj 511 118 throw~ c33;
#X obj 579 118 throw~ c34;
#X obj 647 118 throw~ c35;
#X obj 715 118 throw~ c36;
#X obj 572 4 r ceo_fade;
#X obj 513 80 *~ 1;
#X obj 582 79 *~ 1;
#X obj 650 77 *~ 1;
#X obj 713 79 *~ 1;
#X obj 656 13 r resume_all;
#X obj 761 40 jrange -99 0 0 1;
#X floatatom 791 68 5 0 0 0 - - -, f 5;
#X floatatom 770 97 5 0 0 0 - - -, f 5;
#X msg 571 28 0 5000;
#X obj 581 53 line 1;
#X connect 0 0 1 0;
#X connect 0 0 2 0;
#X connect 0 0 3 0;
#X connect 0 0 9 0;
#X connect 0 0 10 0;
#X connect 0 0 11 0;
#X connect 0 0 12 0;
#X connect 8 0 17 0;
#X connect 9 0 4 0;
#X connect 10 0 5 0;
#X connect 11 0 6 0;
#X connect 12 0 7 0;
#X connect 13 0 14 0;
#X connect 14 0 15 0;
#X connect 14 0 12 1;
#X connect 14 0 11 1;
#X connect 14 0 10 1;
#X connect 14 0 9 1;
#X connect 17 0 18 0;
#X connect 18 0 9 1;
#X connect 18 0 10 1;
#X connect 18 0 11 1;
#X connect 18 0 12 1;
