#N canvas 471 22 1020 698 10;
#X obj 62 76 elooper~;
#X obj 62 102 volume~;
#X obj 147 156 r \$0-start;
#X obj 62 27 r \$0-start;
#X obj 177 177 r \$0-stop;
#X msg 147 205 1;
#X msg 177 205 0;
#X obj 131 26 r \$0-stop;
#X msg 131 50 stop;
#X text 64 4 sonar;
#X obj 147 251 f;
#X obj 180 251 + 1;
#X obj 147 276 mod 12;
#X obj 147 228 metro 500;
#X floatatom 94 320 5 0 0 0 - - -, f 5;
#X obj 142 317 12_ch_selector;
#X obj 338 78 elooper~;
#X obj 338 104 volume~;
#X obj 423 158 r \$0-start;
#X obj 338 29 r \$0-start;
#X obj 453 179 r \$0-stop;
#X msg 423 207 1;
#X msg 453 207 0;
#X obj 407 28 r \$0-stop;
#X msg 407 52 stop;
#X obj 423 253 f;
#X obj 456 253 + 1;
#X obj 423 278 mod 12;
#X obj 423 230 metro 500;
#X floatatom 370 322 5 0 0 0 - - -, f 5;
#X obj 418 319 12_ch_selector;
#X text 340 6 bumps;
#X connect 0 0 1 0;
#X connect 1 0 15 0;
#X connect 2 0 5 0;
#X connect 3 0 0 0;
#X connect 4 0 6 0;
#X connect 5 0 13 0;
#X connect 6 0 13 0;
#X connect 7 0 8 0;
#X connect 8 0 0 0;
#X connect 10 0 11 0;
#X connect 10 0 12 0;
#X connect 11 0 10 1;
#X connect 12 0 14 0;
#X connect 12 0 15 1;
#X connect 13 0 10 0;
#X connect 16 0 17 0;
#X connect 17 0 30 0;
#X connect 18 0 21 0;
#X connect 19 0 16 0;
#X connect 20 0 22 0;
#X connect 21 0 28 0;
#X connect 22 0 28 0;
#X connect 23 0 24 0;
#X connect 24 0 16 0;
#X connect 25 0 26 0;
#X connect 25 0 27 0;
#X connect 26 0 25 1;
#X connect 27 0 29 0;
#X connect 27 0 30 1;
#X connect 28 0 25 0;
