#N canvas 471 22 1129 699 10;
#X obj 299 102 r \$0-start;
#X obj 368 101 r \$0-stop;
#X msg 368 125 stop;
#X obj 299 125 t b b;
#X obj 392 181 timer;
#X text 451 206 file length;
#X obj 392 207 nbx 5 14 -1e+37 1e+37 0 0 empty empty empty 0 -8 0 10
-262144 -1 -1 29190.7 256;
#X obj 299 177 volume~;
#X msg 407 149 1;
#X obj 407 126 loadbang;
#X text 436 151 init vol;
#X obj 303 465 tgl 15 0 empty empty empty 17 7 0 10 -262144 -1 -1 1
1;
#X obj 303 437 r \$0-headphones;
#X obj 299 151 elooper~;
#X obj 405 545 2_ch_selector;
#X floatatom 447 404 5 0 0 0 - - -, f 5;
#X obj 491 380 mod 2;
#X obj 405 516 *~;
#X obj 447 355 f;
#X obj 480 355 + 1;
#X msg 325 59 corridor_sonar_pendants;
#X obj 117 31 s \$0-start;
#X obj 117 11 bng 15 250 50 0 empty empty empty 17 7 0 10 -262144 -1
-1;
#X obj 187 11 bng 15 250 50 0 empty empty empty 17 7 0 10 -262144 -1
-1;
#X obj 187 31 s \$0-stop;
#X obj 494 7 s \$0-headphones;
#X obj 496 -18 tgl 15 0 empty empty empty 17 7 0 10 -262144 -1 -1 1
1;
#X obj 117 -40 r corridor;
#X obj 117 -15 sel 0 1;
#X obj 442 432 12_ch_selector;
#X obj 447 380 mod 12;
#X obj 107 621 bng 15 250 50 0 empty empty empty 17 7 0 10 -262144
-1 -1;
#X obj 560 168 bonk~;
#X obj 561 195 unpack f f f;
#X obj 109 534 f;
#X obj 142 534 + 1;
#X obj 111 558 mod 3;
#X obj 111 587 sel 0;
#X obj 561 248 change;
#X obj 569 306 bng 15 250 50 0 empty empty empty 17 7 0 10 -262144
-1 -1;
#X obj 562 273 sel 1;
#X obj 561 222 > 19;
#X obj 448 327 delay 800;
#X text 608 166 this will skip steps unless we get exact measurements
and do it with disrete delay objects;
#X obj 496 -43 inlet;
#X connect 0 0 3 0;
#X connect 1 0 2 0;
#X connect 2 0 13 0;
#X connect 3 0 13 0;
#X connect 3 1 20 0;
#X connect 4 0 6 0;
#X connect 7 0 17 0;
#X connect 7 0 29 0;
#X connect 8 0 7 1;
#X connect 9 0 8 0;
#X connect 11 0 17 1;
#X connect 12 0 11 0;
#X connect 13 0 7 0;
#X connect 13 0 32 0;
#X connect 13 1 4 0;
#X connect 13 2 4 1;
#X connect 16 0 14 1;
#X connect 17 0 14 0;
#X connect 18 0 19 0;
#X connect 18 0 16 0;
#X connect 18 0 30 0;
#X connect 19 0 18 1;
#X connect 20 0 13 2;
#X connect 22 0 21 0;
#X connect 23 0 24 0;
#X connect 26 0 25 0;
#X connect 27 0 28 0;
#X connect 28 0 23 0;
#X connect 28 1 22 0;
#X connect 30 0 15 0;
#X connect 30 0 29 1;
#X connect 32 1 33 0;
#X connect 33 1 41 0;
#X connect 34 0 35 0;
#X connect 34 0 36 0;
#X connect 35 0 34 1;
#X connect 36 0 37 0;
#X connect 37 0 31 0;
#X connect 38 0 40 0;
#X connect 40 0 39 0;
#X connect 40 0 42 0;
#X connect 41 0 38 0;
#X connect 42 0 18 0;
#X connect 44 0 26 0;
