#N canvas 0 22 689 766 10;
#X obj 102 101 cnv 15 69 175 empty empty empty 20 12 0 14 -261234 -66577
0;
#X obj 106 113 vsl 15 120 0 2 0 0 empty empty empty 0 -9 0 10 -204800
-1 -1 1047 1;
#X obj 103 240 nbx 5 30 -1e+37 1e+37 0 0 empty empty empty 0 -8 0 10
-204800 -1 -1 -15.0897 256;
#X obj 126 113 vu 15 120 empty empty -1 -8 0 10 -66577 -1 1 0;
#X obj 2 195 rmstodb;
#X obj 2 217 - 100;
#X floatatom 5 240 5 0 0 0 - - -, f 5;
#X obj 148 61 r \$0-vu;
#X obj 28 47 loadbang;
#X floatatom 30 113 5 0 0 0 - - -, f 5;
#X text -42 95 for setting new preset;
#X msg 28 71 0.176;
#X obj -11 325 *~;
#X obj -4 373 outlet~;
#X obj -27 15 inlet~;
#X obj -87 382 - 100;
#X obj -87 403 s \$0-vu;
#X obj -88 358 env~ 16384;
#X connect 1 0 4 0;
#X connect 1 0 6 0;
#X connect 1 0 9 0;
#X connect 1 0 12 1;
#X connect 4 0 5 0;
#X connect 5 0 2 0;
#X connect 7 0 3 0;
#X connect 8 0 11 0;
#X connect 11 0 1 0;
#X connect 12 0 13 0;
#X connect 12 0 17 0;
#X connect 14 0 12 0;
#X connect 15 0 16 0;
#X connect 17 0 15 0;
#X coords 0 -1 1 1 72 178 1 100 100;
