#N canvas 483 22 1343 934 10;
#X obj 586 621 output_stage;
#X obj 471 48 audio_tables_loader;
#X obj 471 24 bng 15 250 50 0 empty empty empty 17 7 0 10 -262144 -1
-1;
#X obj 471 72 bng 15 250 50 0 empty empty empty 17 7 0 10 -262144 -1
-1;
#X obj 171 100 corridor;
#X obj 340 48 s corridor;
#X obj 339 20 tgl 15 0 empty empty empty 17 7 0 10 -262144 -1 -1 1
1;
#X connect 1 0 3 0;
#X connect 2 0 1 0;
#X connect 6 0 5 0;
